<?xml version="1.0" standalone="no"?>
<!DOCTYPE svg PUBLIC "-//W3C//DTD SVG 20010904//EN"
 "http://www.w3.org/TR/2001/REC-SVG-20010904/DTD/svg10.dtd">
<svg version="1.0" xmlns="http://www.w3.org/2000/svg"
 width="1078.000000pt" height="1306.000000pt" viewBox="0 0 1078.000000 1306.000000"
 preserveAspectRatio="xMidYMid meet">
<metadata>
Created by potrace 1.15, written by Peter Selinger 2001-2017
</metadata>
<g transform="translate(0.000000,1306.000000) scale(0.100000,-0.100000)"
fill="#000000" stroke="none">
<path d="M515 13027 c-41 -64 -45 -72 -56 -97 -6 -14 -11 -27 -12 -29 -1 -2
-16 -20 -34 -39 -17 -19 -37 -47 -43 -63 -7 -16 -16 -29 -21 -29 -5 0 -9 -7
-9 -15 0 -8 -4 -15 -10 -15 -5 0 -10 -5 -10 -10 0 -6 -12 -29 -27 -53 -16 -23
-28 -47 -28 -52 0 -6 -9 -20 -20 -31 -11 -12 -29 -36 -40 -55 -11 -18 -28 -46
-38 -62 -9 -15 -19 -36 -20 -46 -2 -10 -10 -26 -19 -35 -10 -9 -14 -24 -11
-33 4 -10 2 -14 -5 -9 -13 8 -22 -2 -69 -74 -20 -32 -37 -72 -40 -95 l-4 -40
14 30 c8 17 21 36 30 44 10 7 17 20 17 27 0 8 4 14 8 14 4 0 21 25 37 56 16
30 32 57 35 59 4 2 20 1 36 -4 32 -8 43 1 83 72 23 40 27 62 11 52 -6 -3 -10
-2 -10 4 0 5 -3 17 -7 27 -5 13 -2 16 8 12 10 -4 14 4 16 29 2 45 6 48 48 36
34 -11 35 -10 51 23 9 19 19 34 23 34 19 0 43 85 43 150 0 39 4 68 8 65 5 -3
12 0 16 6 4 7 9 7 13 1 3 -5 16 -12 29 -16 16 -6 22 -3 22 8 0 9 4 16 8 16 5
0 15 12 22 28 8 15 20 34 26 42 7 8 19 34 27 58 l15 42 -47 0 c-41 0 -48 -4
-66 -33z"/>
<path d="M2309 13051 c11 -7 9 -10 -7 -15 -12 -4 -30 -18 -40 -31 -11 -13 -22
-22 -26 -20 -3 3 -4 2 -1 -2 3 -4 -23 -37 -58 -73 -109 -111 -127 -131 -127
-146 0 -8 -4 -14 -8 -14 -18 0 -232 -227 -232 -246 0 -8 -3 -14 -7 -14 -16 -1
-104 -90 -98 -100 3 -5 -1 -10 -9 -10 -9 0 -16 -4 -16 -9 0 -5 -21 -31 -47
-58 -27 -27 -58 -60 -69 -73 -12 -14 -31 -32 -41 -40 -11 -8 -28 -28 -38 -43
-10 -16 -36 -46 -57 -66 -21 -21 -38 -42 -38 -47 0 -5 -12 -21 -27 -35 -16
-14 -64 -65 -108 -114 -44 -49 -90 -98 -102 -109 -13 -11 -23 -23 -23 -27 0
-4 -47 -55 -105 -115 -58 -59 -105 -111 -105 -115 0 -5 -22 -32 -50 -60 -28
-28 -50 -55 -50 -60 0 -5 -6 -9 -14 -9 -7 0 -21 -10 -29 -22 -39 -56 -200
-228 -214 -228 -7 0 -13 -4 -13 -8 0 -5 -25 -34 -55 -65 -30 -31 -55 -61 -55
-66 0 -5 -9 -13 -20 -16 -11 -3 -20 -10 -20 -15 0 -5 -13 -23 -30 -41 -16 -18
-28 -42 -27 -53 1 -15 -3 -21 -16 -20 -18 2 -81 -69 -75 -86 5 -15 228 208
228 229 0 5 9 13 20 16 11 3 20 13 20 21 0 8 4 14 9 14 17 0 80 69 87 95 4 15
15 27 30 31 13 3 24 12 24 18 0 7 11 19 25 26 14 8 24 18 21 24 -2 6 18 32 45
58 27 26 49 52 49 58 0 5 6 10 13 10 7 0 20 16 27 35 9 23 19 34 28 30 8 -3
10 0 6 7 -5 7 -2 9 9 5 11 -4 14 -2 10 9 -3 8 1 14 11 14 9 0 16 7 16 16 0 8
4 12 10 9 10 -6 70 49 105 98 11 15 28 27 37 27 10 0 18 5 18 10 0 6 -7 10
-15 10 -9 0 -12 6 -9 15 4 8 12 15 20 15 8 0 14 5 14 10 0 6 7 10 15 10 9 0
19 8 22 18 4 9 12 21 20 25 7 4 13 13 13 18 0 6 6 17 14 25 11 10 15 11 19 1
3 -7 8 -5 13 8 4 11 18 29 31 41 13 12 23 31 23 44 0 19 2 20 15 10 12 -10 15
-9 15 8 0 13 9 22 26 26 21 6 25 12 21 31 -3 21 0 25 19 25 33 0 54 10 54 26
0 7 12 17 26 20 14 4 23 12 20 19 -2 7 11 28 30 46 19 18 34 40 34 48 0 8 3
11 7 8 7 -8 39 34 35 47 -2 5 4 6 13 2 12 -4 22 6 38 44 12 27 27 49 32 48 21
-4 55 14 55 28 0 8 7 14 16 14 8 0 12 5 9 10 -3 6 -2 10 3 10 5 0 24 16 43 35
19 19 42 35 51 35 9 0 19 6 21 13 4 7 6 8 6 1 1 -6 -6 -17 -14 -24 -8 -7 -15
-23 -15 -36 0 -24 -15 -58 -35 -79 -21 -22 -92 -74 -105 -77 -29 -7 -49 -32
-44 -54 4 -17 0 -26 -18 -35 -12 -7 -26 -12 -30 -11 -5 1 -8 -3 -8 -8 0 -6 -8
-10 -17 -10 -16 0 -16 -2 -3 -11 12 -8 12 -12 2 -16 -21 -8 -67 -54 -65 -64 2
-5 -8 -16 -22 -25 -14 -9 -25 -23 -25 -30 0 -8 -6 -14 -13 -14 -7 0 -32 -12
-55 -27 -33 -22 -42 -33 -42 -56 0 -27 2 -28 33 -22 17 4 35 13 39 19 10 18
103 133 130 161 12 14 28 25 34 25 6 0 20 18 32 39 13 22 31 43 42 46 17 5 97
84 188 185 18 19 43 46 56 60 13 14 31 42 41 63 14 29 23 37 37 34 10 -3 18
-1 18 3 0 5 24 33 53 63 215 222 247 259 247 291 0 24 36 56 48 44 6 -6 44 24
112 91 l102 101 -138 0 c-84 0 -133 -4 -125 -9z"/>
<path d="M5825 13005 c4 -38 3 -55 -5 -55 -7 0 -8 -5 -3 -12 4 -7 13 -31 18
-53 11 -44 39 -62 148 -95 36 -11 63 -40 50 -54 -13 -13 10 -5 35 12 15 10 43
26 62 36 32 15 59 33 127 81 12 8 20 22 17 29 -3 8 0 24 6 36 9 16 9 25 1 33
-14 14 -14 54 -1 62 6 3 10 13 10 21 0 12 -37 14 -236 14 l-236 0 7 -55z"/>
<path d="M6910 13029 c0 -17 -7 -43 -16 -59 -16 -26 -16 -29 3 -56 11 -16 24
-44 28 -61 3 -19 13 -33 21 -33 8 0 14 -5 14 -10 0 -6 7 -10 16 -8 17 3 24
-22 25 -84 0 -14 6 -29 14 -32 8 -3 15 -12 15 -21 0 -27 16 -16 25 18 6 17 16
33 23 33 6 1 16 2 21 3 17 2 22 35 7 43 -20 11 -15 107 8 139 9 13 16 36 16
51 0 24 3 26 27 22 15 -3 29 -7 31 -9 4 -3 -42 -100 -60 -126 -9 -13 -7 -21 9
-39 27 -28 67 -24 71 8 2 12 12 27 23 32 19 10 26 50 12 64 -4 4 -6 23 -4 42
1 19 -2 34 -8 34 -6 0 -8 13 -4 33 7 40 8 41 30 32 29 -13 63 -12 75 2 8 11
-30 13 -206 13 l-216 0 0 -31z"/>
<path d="M7832 13018 c-24 -23 -41 -47 -38 -54 6 -15 -19 -38 -33 -30 -5 3
-21 2 -35 -4 -22 -8 -26 -16 -26 -50 0 -30 4 -40 16 -40 10 0 14 -7 12 -17 -2
-10 -10 -17 -17 -15 -10 2 -12 -19 -9 -92 1 -52 8 -100 14 -106 11 -11 154 53
154 70 0 6 8 10 18 10 30 0 182 79 182 95 0 10 10 15 28 15 15 0 72 24 127 53
89 48 100 57 103 83 2 16 6 36 9 44 8 21 11 53 6 68 -4 8 -32 12 -94 12 l-88
0 4 -31 c2 -18 -2 -37 -10 -45 -14 -14 -9 -58 6 -48 5 3 6 -2 3 -10 -7 -18
-54 -50 -62 -42 -3 3 0 6 6 6 7 0 12 5 12 10 0 6 -7 10 -15 10 -31 0 -75 30
-75 51 0 14 -5 19 -17 17 -14 -3 -17 -12 -15 -37 l2 -33 -42 6 c-24 3 -48 5
-55 5 -6 1 -12 9 -12 19 0 9 -1 32 -1 50 -1 17 2 41 5 52 11 33 -17 24 -63
-22z m98 -129 c0 -9 75 -3 91 7 12 7 49 -14 49 -29 -1 -24 -52 -61 -93 -67
-33 -4 -41 -9 -39 -23 2 -14 -3 -16 -30 -13 -18 3 -35 5 -38 5 -3 1 -14 16
-24 35 -22 42 -18 77 12 92 24 12 72 7 72 -7z"/>
<path d="M3327 12915 c-12 -17 -14 -26 -5 -31 7 -5 4 -10 -10 -15 -27 -10 -31
-69 -5 -94 15 -16 15 -19 0 -45 -9 -15 -15 -29 -12 -31 2 -3 5 -23 6 -44 1
-47 17 -95 31 -95 5 0 7 -9 3 -19 -10 -34 28 -14 88 45 40 40 54 60 50 74 -5
20 -23 28 -23 11 0 -5 -9 -7 -20 -4 -15 4 -20 14 -20 39 0 27 -4 34 -20 34
-26 0 -26 22 1 39 17 10 19 15 9 21 -17 10 -25 60 -10 60 11 0 14 39 4 64 -9
24 -47 19 -67 -9z"/>
<path d="M5063 12923 c-13 -2 -23 -9 -23 -14 0 -5 -6 -9 -13 -9 -32 0 -48 -35
-41 -93 9 -77 16 -85 51 -62 15 10 34 25 42 33 11 11 16 11 23 0 6 -8 7 10 2
47 -4 33 -7 70 -7 83 1 12 -2 21 -6 21 -3 -1 -16 -4 -28 -6z"/>
<path d="M7488 12905 c43 -19 41 -42 -5 -54 -21 -6 -42 -11 -48 -11 -5 0 -11
-16 -11 -35 -2 -61 -4 -66 -15 -59 -6 3 -15 0 -20 -7 -7 -11 -12 -12 -29 -1
-17 11 -20 10 -20 -8 0 -39 -71 -55 -90 -20 -15 28 -40 25 -40 -4 0 -19 6 -25
28 -28 24 -3 27 -6 24 -38 -2 -28 0 -32 10 -22 6 6 22 12 35 12 12 0 33 5 46
11 26 12 117 -2 147 -21 13 -9 12 -13 -7 -29 -13 -11 -23 -21 -23 -24 0 -3 13
-19 30 -37 24 -26 32 -29 49 -21 26 14 28 26 30 153 2 99 -9 146 -22 96 -6
-22 -6 -22 -32 6 -14 15 -25 32 -25 39 1 17 26 48 33 40 4 -3 7 1 7 9 0 9 10
18 23 22 l22 6 -25 20 c-16 12 -40 19 -65 19 l-40 0 33 -14z"/>
<path d="M6280 12775 c0 -8 -6 -15 -14 -15 -8 0 -21 -9 -29 -21 -13 -17 -19
-19 -36 -10 -17 10 -20 9 -14 -4 6 -16 -27 -55 -47 -55 -18 0 -11 -16 14 -30
14 -7 55 -13 93 -14 l68 -1 2 50 c4 70 -5 115 -22 115 -8 0 -15 -7 -15 -15z"/>
<path d="M8290 12779 c0 -5 -8 -9 -17 -8 -31 3 -38 -1 -23 -11 11 -7 5 -8 -19
-3 -29 5 -33 4 -28 -10 8 -21 -17 -40 -43 -32 -21 7 -29 -10 -7 -18 7 -3 5 -6
-5 -6 -10 -1 -18 4 -18 9 0 6 -4 10 -10 10 -5 0 -10 -7 -10 -16 0 -8 -5 -12
-11 -9 -22 14 -60 -6 -74 -38 -8 -19 -14 -25 -15 -14 0 24 -17 21 -45 -8 -14
-13 -42 -27 -63 -31 -48 -9 -83 -32 -80 -53 2 -12 -7 -17 -37 -21 -22 -3 -40
-10 -40 -17 0 -6 -3 -15 -7 -19 -5 -4 -8 -2 -8 4 0 7 -6 12 -13 12 -16 0 -21
-82 -5 -91 9 -6 9 -14 0 -34 -14 -29 -16 -193 -3 -213 6 -11 15 -11 47 0 46
16 94 4 94 -23 0 -9 16 -26 35 -38 25 -15 35 -27 35 -45 0 -15 8 -30 21 -36
11 -7 18 -17 16 -23 -21 -50 -22 -48 20 -41 33 5 43 3 54 -14 11 -15 19 -17
37 -11 12 5 22 14 22 21 1 13 44 68 55 68 3 0 5 -7 5 -15 0 -8 4 -15 9 -15 14
0 21 28 8 33 -6 2 -4 6 6 10 13 5 17 1 17 -16 0 -13 5 -28 12 -35 9 -9 9 -23
-1 -63 -11 -43 -11 -53 0 -60 10 -6 14 -34 15 -102 0 -51 4 -99 8 -105 7 -12
109 28 135 53 10 10 14 59 16 201 2 104 4 196 5 204 0 8 -4 98 -11 200 -6 102
-13 246 -15 320 -2 74 -6 140 -8 147 -6 16 -56 18 -56 2z m-260 -363 c0 -13 5
-17 20 -13 11 3 20 0 20 -5 0 -6 8 -4 18 5 21 19 49 21 86 7 18 -6 28 -21 36
-52 13 -48 5 -138 -13 -150 -9 -6 -9 -8 1 -8 6 0 12 -7 12 -15 0 -10 -6 -12
-17 -8 -26 10 -45 31 -38 43 12 19 -15 52 -38 47 -12 -2 -33 -1 -47 3 -20 5
-30 1 -50 -20 -14 -14 -40 -32 -59 -40 -30 -12 -35 -12 -50 6 -9 11 -28 25
-43 32 -23 10 -28 9 -28 -3 0 -28 -33 -34 -59 -10 l-23 23 26 17 c14 9 33 15
41 11 12 -4 15 3 15 34 0 21 5 42 10 45 6 4 5 12 -4 21 -16 15 -14 48 5 70 13
16 56 19 61 4 2 -7 17 -6 43 4 38 13 41 13 57 -8 10 -11 18 -29 18 -40z"/>
<path d="M3655 12613 c0 -27 -2 -28 -52 -28 -32 0 -50 3 -46 10 2 5 -1 3 -9
-6 -7 -9 -23 -21 -36 -28 -12 -7 -20 -17 -16 -23 4 -6 3 -8 -4 -4 -6 3 -17 -1
-25 -9 -9 -8 -20 -15 -26 -15 -6 0 -16 -9 -23 -20 -7 -11 -18 -20 -25 -20 -7
0 -13 -4 -13 -10 0 -5 -6 -10 -13 -10 -8 0 -20 -11 -27 -24 -7 -14 -22 -26
-34 -28 -19 -3 -21 -10 -23 -75 -1 -69 8 -101 21 -68 8 21 33 19 45 -4 9 -16
15 -17 51 -8 40 11 61 41 46 65 -3 5 1 16 10 23 12 10 24 10 60 1 24 -7 62
-12 84 -12 31 0 40 -4 40 -17 0 -22 52 -53 88 -53 19 0 23 3 13 9 -11 7 -10
13 3 33 9 14 13 34 10 48 -3 14 -7 33 -7 43 -1 9 -5 17 -10 17 -5 0 -7 14 -3
30 3 19 1 30 -6 30 -6 0 -2 10 10 23 26 27 27 40 7 57 -8 7 -20 30 -26 52 -7
28 -15 38 -24 34 -8 -3 -17 -1 -20 4 -11 18 -21 10 -20 -17z"/>
<path d="M6676 12562 c-6 -26 -16 -37 -41 -48 -34 -14 -85 -58 -85 -73 0 -5 7
-11 15 -15 10 -4 15 -20 15 -50 0 -40 -3 -46 -25 -52 -21 -5 -23 -9 -14 -26 7
-14 7 -23 -2 -34 -6 -8 -8 -15 -3 -15 23 -3 51 4 66 18 10 9 25 13 34 9 33
-13 125 32 132 64 5 20 25 31 33 19 3 -6 10 -10 15 -10 4 1 9 -10 11 -24 3
-20 -1 -25 -17 -25 -12 0 -32 -13 -45 -29 -16 -18 -34 -28 -51 -28 -14 0 -29
-5 -33 -10 -3 -6 -16 -16 -29 -22 -22 -12 -23 -13 -6 -25 14 -11 16 -19 8 -45
-11 -39 -25 -42 -41 -11 -21 41 -41 44 -69 11 -14 -17 -30 -28 -35 -25 -6 3
-5 11 2 20 9 11 8 14 -6 14 -9 0 -19 9 -22 20 -5 19 -6 20 -19 3 -12 -17 -13
-17 -14 4 0 12 -4 24 -9 27 -10 7 -22 -83 -14 -113 5 -21 23 -30 23 -11 0 6 9
10 20 10 11 0 20 -4 20 -10 0 -5 -7 -10 -15 -10 -8 0 -15 -7 -15 -15 0 -18 41
-20 57 -4 6 6 48 12 93 14 62 3 87 8 102 22 11 10 21 16 22 13 1 -3 33 10 72
28 l71 32 -4 43 c-6 49 -16 64 -46 70 -15 3 -12 5 11 6 17 0 32 -3 32 -9 0 -5
7 -10 15 -10 8 0 15 -7 15 -16 0 -8 5 -12 10 -9 6 3 10 -3 10 -14 0 -27 22
-27 65 2 38 24 41 32 22 51 -7 8 -11 30 -9 57 3 42 6 46 45 62 68 27 101 31
117 12 16 -19 74 -45 101 -45 18 0 52 40 47 56 -1 5 1 19 6 31 5 15 2 30 -8
45 -9 12 -16 29 -16 38 0 11 -10 15 -33 14 -19 -1 -38 -4 -43 -7 -6 -3 -16 -2
-24 4 -21 13 -30 11 -30 -6 0 -21 -73 -20 -105 1 -30 20 -71 15 -67 -7 1 -9
-4 -19 -12 -22 -11 -5 -13 -13 -6 -36 5 -17 5 -33 1 -35 -10 -6 -8 -37 3 -55
14 -23 -10 -35 -26 -13 -8 12 -26 24 -41 27 -15 4 -27 10 -27 14 0 11 -60 30
-76 24 -8 -3 -14 0 -14 7 0 7 -14 29 -31 49 -61 73 -67 81 -72 93 -2 7 -7 -2
-11 -20z"/>
<path d="M10720 12541 c-25 -9 -47 -19 -50 -22 -3 -3 -27 -14 -55 -24 -27 -11
-52 -22 -55 -25 -3 -3 -34 -17 -70 -29 -140 -51 -201 -86 -127 -74 27 4 33 2
35 -14 1 -10 4 -35 8 -57 7 -42 -8 -61 -37 -46 -9 5 -18 7 -21 5 -3 -3 -11 6
-18 20 -17 32 -36 32 -44 0 -4 -14 -13 -25 -21 -25 -9 0 -15 -10 -15 -26 0
-16 -4 -23 -11 -18 -7 4 -9 0 -5 -14 8 -25 -9 -62 -28 -62 -8 0 -24 8 -37 19
-19 15 -28 17 -49 8 -29 -13 -60 -42 -76 -72 -6 -12 -19 -19 -32 -18 -30 4
-49 -32 -25 -46 10 -6 14 -11 8 -11 -5 0 -3 -5 5 -10 13 -9 13 -11 0 -20 -11
-7 -11 -10 -2 -10 9 0 10 -5 3 -18 -5 -10 -8 -33 -5 -50 4 -24 1 -34 -12 -39
-15 -6 -15 -7 2 -21 11 -8 15 -16 8 -18 -17 -7 -3 -56 17 -61 11 -3 19 -9 19
-14 0 -13 64 -11 77 2 8 8 17 7 34 -2 13 -7 30 -12 37 -11 6 2 17 -9 24 -23 6
-14 20 -25 30 -25 16 0 17 5 12 43 -4 23 -11 51 -17 62 -7 13 -6 20 2 23 9 3
9 7 0 18 -9 11 -8 14 4 14 9 0 23 -12 30 -27 14 -26 15 -26 21 -6 4 12 20 26
36 32 19 6 28 15 24 24 -3 8 9 25 31 41 27 21 35 23 35 12 0 -9 5 -16 10 -16
6 0 10 6 10 13 0 8 12 20 28 27 25 12 26 13 7 21 -11 4 -16 8 -11 8 5 1 -1 9
-12 20 -24 20 -31 41 -7 21 11 -9 19 -9 28 -2 10 9 18 6 30 -9 10 -11 15 -24
12 -29 -4 -6 -1 -10 5 -10 6 0 16 -11 22 -25 6 -14 17 -25 25 -25 7 0 13 -4
13 -9 0 -10 52 -24 90 -25 59 -2 17 -75 -81 -141 -24 -16 -46 -33 -47 -38 -2
-4 -25 -16 -50 -28 -26 -11 -63 -29 -83 -40 -20 -10 -44 -19 -52 -19 -9 0 -19
-9 -22 -21 -4 -11 -19 -28 -33 -37 -44 -28 -37 -49 15 -50 26 0 52 -7 62 -16
10 -9 35 -16 58 -16 32 0 42 -4 46 -20 3 -14 17 -21 46 -26 43 -7 48 -13 30
-31 -17 -17 -3 -43 22 -43 16 0 19 -3 12 -12 -14 -18 -22 -57 -13 -63 13 -8
18 -58 10 -105 -7 -38 -9 -42 -15 -22 -7 20 -13 23 -53 21 -36 -3 -48 1 -63
20 -14 17 -25 22 -44 17 -19 -5 -23 -3 -19 9 6 15 -9 20 -50 15 -11 -1 -15 3
-12 9 4 6 14 11 22 11 25 0 15 14 -26 40 -22 14 -40 30 -40 37 0 7 -5 13 -12
13 -6 0 -31 9 -55 21 -38 18 -48 19 -90 9 -27 -6 -60 -14 -75 -17 -16 -3 -28
-9 -28 -14 0 -5 -17 -17 -37 -27 -21 -9 -43 -21 -49 -27 -7 -5 -31 -26 -55
-45 -24 -19 -51 -43 -61 -52 -10 -10 -27 -18 -38 -18 -23 0 -24 4 -11 29 8 14
15 71 25 214 0 10 8 22 16 27 12 7 12 12 2 22 -6 6 -12 36 -12 66 0 45 3 53
16 48 9 -3 18 -6 20 -6 2 0 4 -11 4 -24 0 -16 7 -27 20 -31 11 -3 20 -11 20
-16 0 -15 60 -73 67 -65 4 4 2 10 -4 14 -6 4 -19 36 -28 72 -9 36 -23 75 -31
87 -8 12 -14 29 -14 38 0 8 -4 15 -10 15 -5 0 -10 15 -11 33 0 17 -3 26 -6 19
-4 -10 -9 -9 -24 4 -10 9 -19 23 -19 31 0 7 -4 13 -8 13 -5 0 -7 14 -6 31 1
17 -3 47 -10 67 l-13 36 -11 -34 c-7 -18 -12 -59 -12 -92 0 -44 -4 -60 -16
-65 -8 -3 -13 -11 -11 -17 3 -7 -4 -12 -17 -12 -15 1 -22 -6 -24 -23 -3 -18
-8 -22 -28 -18 -13 2 -32 -2 -41 -9 -13 -9 -14 -13 -4 -14 7 0 11 -6 8 -15 -4
-8 -2 -17 3 -20 13 -8 13 -25 0 -25 -5 0 -10 6 -10 13 -1 33 -16 38 -54 16
-28 -16 -40 -19 -49 -10 -17 17 -23 14 -61 -24 -28 -27 -35 -43 -36 -77 -1
-24 -1 -45 -1 -48 1 -3 4 -57 7 -120 2 -63 6 -126 8 -140 1 -14 4 -31 4 -39 1
-8 8 -11 18 -7 9 3 28 -2 42 -12 39 -26 79 -42 107 -42 32 0 32 -13 1 -34 -13
-8 -27 -30 -31 -48 -4 -18 -16 -44 -27 -58 -19 -24 -19 -25 1 -41 12 -10 24
-31 27 -49 5 -23 11 -30 23 -25 9 4 88 27 176 51 88 24 171 48 185 53 28 11
94 30 305 91 230 67 239 70 270 86 17 9 44 18 60 20 47 6 85 14 148 32 l57 16
0 379 0 379 -22 19 -23 19 23 6 22 6 0 269 0 269 -27 0 -28 1 28 17 c15 9 27
20 27 24 0 10 -5 9 -60 -11z"/>
<path d="M7323 12299 c-5 -5 -20 -11 -32 -12 -27 -2 -28 -17 0 -17 11 0 39
-15 62 -34 23 -19 53 -36 67 -38 14 -1 26 -10 26 -18 1 -8 2 -21 3 -27 2 -27
21 -11 21 17 l0 31 49 -7 c45 -6 49 -5 54 17 4 13 7 36 7 52 0 27 0 27 -55 21
-36 -5 -59 -3 -69 5 -19 16 -119 24 -133 10z"/>
<path d="M3164 12274 c4 -12 2 -15 -9 -10 -8 3 -15 2 -15 -2 0 -4 -18 -18 -40
-31 -45 -28 -55 -53 -28 -70 11 -7 17 -15 14 -18 -3 -3 4 -17 14 -31 11 -13
20 -32 20 -40 0 -8 3 -12 6 -9 4 3 15 2 24 -3 15 -8 19 -4 27 28 8 30 6 43 -9
67 -23 39 -23 58 2 80 24 22 26 55 4 55 -11 0 -14 -5 -10 -16z"/>
<path d="M4753 12277 c3 -7 -1 -24 -8 -37 -12 -22 -10 -28 16 -58 28 -31 39
-60 19 -47 -5 3 -12 -5 -16 -19 -3 -14 -11 -23 -18 -20 -16 6 -41 -22 -27 -30
5 -3 21 -7 35 -8 23 -2 31 -14 24 -35 -2 -5 -11 -7 -20 -6 -10 2 -18 -2 -18
-8 0 -5 5 -7 12 -3 7 5 8 3 3 -5 -4 -7 -15 -11 -25 -8 -12 3 -20 -2 -23 -14
-8 -28 12 -34 41 -12 15 11 35 22 44 26 10 3 20 18 24 32 4 15 13 25 24 25 23
0 36 36 20 55 -8 9 -8 19 -1 33 6 11 6 33 1 56 -5 21 -7 44 -4 50 2 6 -15 19
-39 29 -50 20 -71 22 -64 4z"/>
<path d="M5265 12168 c-11 -11 -33 -29 -49 -39 -30 -18 -39 -46 -40 -134 -1
-41 7 -46 47 -30 12 5 17 2 17 -8 0 -9 -8 -21 -17 -27 -13 -8 -14 -13 -5 -16
6 -3 12 -23 12 -45 0 -44 15 -51 32 -14 7 17 19 25 36 25 l24 0 -22 18 c-19
15 -20 20 -9 47 16 39 20 245 5 244 -6 0 -20 -9 -31 -21z"/>
<path d="M7703 12015 c-1 -72 2 -85 16 -86 36 -3 75 -8 87 -13 16 -6 23 32 16
90 -5 48 -29 74 -69 74 -12 0 -25 5 -28 10 -15 25 -21 4 -22 -75z"/>
<path d="M4834 11909 c-3 -5 2 -9 10 -9 19 0 21 -16 4 -26 -8 -5 -6 -10 8 -15
13 -5 4 -7 -26 -7 -25 0 -37 2 -27 5 21 6 22 19 2 27 -17 6 -65 -12 -65 -25 0
-4 -8 -9 -17 -11 -15 -3 -17 -14 -15 -83 4 -114 12 -163 28 -169 14 -6 20 -46
7 -46 -19 -1 -44 -30 -37 -42 4 -7 8 -22 9 -33 1 -11 2 -34 3 -51 2 -34 20
-45 61 -35 21 6 22 8 7 20 -9 7 -16 22 -16 32 0 15 5 17 30 13 40 -8 38 0 -5
20 -21 10 -32 22 -29 30 3 8 1 17 -5 21 -16 9 -13 25 4 25 15 0 19 15 16 56
-2 17 9 26 53 44 l56 22 -20 28 c-20 28 -13 49 10 35 6 -4 9 -3 8 2 -6 19 30
50 65 57 20 4 38 12 38 19 1 7 3 27 5 45 4 31 2 33 -24 32 -48 -4 -62 0 -62
14 0 16 -66 20 -76 5z"/>
<path d="M1322 11805 c-12 -14 -26 -25 -32 -25 -5 0 -10 -7 -10 -15 0 -9 -7
-18 -16 -22 -9 -3 -27 -17 -41 -31 -19 -19 -22 -27 -11 -33 7 -5 9 -9 3 -10
-25 -3 -32 -6 -64 -24 -19 -11 -44 -30 -56 -42 -12 -13 -31 -23 -41 -24 -11 0
-14 -3 -6 -6 9 -3 5 -13 -13 -31 -15 -14 -29 -39 -32 -54 -3 -15 -9 -28 -13
-28 -4 0 -11 -10 -17 -22 -6 -13 -28 -32 -49 -43 -45 -24 -90 -68 -100 -97 -3
-11 -22 -36 -40 -55 -19 -19 -32 -38 -29 -44 4 -5 -3 -9 -13 -9 -18 0 -82 -55
-82 -70 0 -4 -12 -12 -26 -18 -14 -7 -23 -16 -20 -20 3 -5 -7 -17 -20 -27 -14
-10 -32 -32 -40 -47 -8 -16 -26 -33 -39 -38 -14 -5 -25 -16 -25 -23 0 -8 -16
-28 -35 -44 -19 -17 -35 -35 -35 -42 0 -6 -4 -11 -10 -11 -6 0 -18 -8 -28 -18
-24 -24 -54 -72 -45 -71 24 2 70 39 83 66 8 17 24 34 35 39 11 5 26 21 33 36
7 16 23 33 35 39 33 18 136 126 147 155 5 13 18 27 27 31 32 12 163 135 169
159 3 13 22 35 42 50 35 27 134 124 125 124 -2 0 8 10 22 23 14 12 27 29 28
38 4 23 27 49 44 49 8 0 29 15 48 33 19 17 53 45 75 61 22 17 45 45 52 63 7
18 15 33 19 33 8 0 33 59 27 65 -2 3 -14 -6 -26 -20z"/>
<path d="M5206 11741 c-3 -22 -12 -41 -18 -43 -20 -7 -25 -270 -6 -289 15 -15
12 -39 -5 -51 -6 -4 -4 -13 7 -23 15 -16 20 -15 69 10 28 15 55 33 59 39 4 6
8 44 8 84 0 53 -5 82 -20 109 -11 21 -20 46 -20 55 0 21 -11 23 -27 7 -20 -20
-45 -2 -39 28 14 77 17 113 8 113 -5 0 -12 -18 -16 -39z"/>
<path d="M7221 11555 c-17 -20 -31 -41 -31 -47 0 -6 -13 -33 -30 -60 -34 -55
-35 -58 -16 -58 7 0 21 -12 30 -26 18 -27 51 -29 52 -4 1 26 15 60 25 60 5 0
9 -5 9 -11 0 -9 38 -47 98 -99 22 -20 13 13 -24 85 -42 82 -64 141 -64 173 0
31 -13 28 -49 -13z"/>
<path d="M9063 11332 c-28 -15 -71 -59 -76 -79 -1 -4 -14 -7 -29 -6 -29 3 -73
-40 -90 -89 -6 -16 -16 -28 -22 -28 -29 0 -56 -100 -48 -179 7 -74 23 -63 20
15 -3 77 12 98 63 84 38 -11 51 -26 89 -94 28 -53 29 -57 10 -51 -12 4 -27 1
-35 -5 -11 -9 -10 -17 7 -46 11 -19 18 -34 15 -34 -3 0 0 -12 8 -26 9 -17 11
-44 8 -80 -5 -44 -3 -55 11 -60 24 -9 27 -3 29 55 1 28 5 51 10 51 4 0 7 7 7
15 0 8 -6 15 -12 15 -10 0 -10 2 0 9 11 7 11 9 -2 14 -9 4 -13 13 -10 22 4 8
1 22 -6 30 -7 9 -11 18 -8 20 11 12 36 -8 51 -40 9 -19 21 -35 26 -35 5 0 26
-22 46 -50 35 -48 39 -50 83 -50 43 1 45 2 28 15 -10 8 -22 12 -27 10 -4 -3
-11 0 -15 7 -4 7 -4 10 1 6 4 -4 17 5 28 19 19 23 22 44 25 173 4 121 2 152
-12 178 -9 17 -16 40 -16 51 0 31 -59 151 -74 151 -8 0 -19 7 -26 15 -15 18
-17 18 -57 -3z"/>
<path d="M6803 11312 c-7 -12 -8 -24 -2 -33 9 -14 3 -144 -7 -160 -3 -5 -1 -9
5 -9 5 0 11 -8 13 -18 3 -16 8 -17 36 -10 18 5 31 12 28 16 -2 4 8 8 22 9 31
1 52 26 45 53 -4 15 0 20 15 20 26 0 38 18 18 26 -11 4 -14 14 -10 30 5 18 2
24 -11 24 -10 0 -13 -5 -9 -12 4 -7 3 -8 -4 -4 -7 4 -12 13 -12 21 0 12 -44
31 -62 27 -5 -1 -8 3 -8 8 0 6 -7 10 -15 10 -8 0 -15 5 -15 10 0 16 -14 12
-27 -8z"/>
<path d="M1988 11273 c-1 -27 -2 -63 -1 -80 0 -18 -4 -33 -8 -33 -5 0 -9 9 -9
20 0 11 -4 20 -9 20 -4 0 -21 12 -36 26 -33 30 -56 25 -54 -13 1 -15 1 -34 0
-40 -1 -17 -21 -17 -21 0 0 15 -32 19 -41 5 -3 -5 -15 -10 -26 -11 -14 -1 -19
-6 -16 -18 3 -9 0 -20 -6 -23 -7 -5 -11 1 -11 14 0 13 -8 24 -20 27 -11 3 -20
11 -20 18 0 11 -6 11 -30 2 -18 -7 -28 -17 -26 -24 3 -7 1 -13 -4 -13 -17 0
-51 -40 -44 -51 4 -7 -1 -9 -15 -4 -25 7 -41 -19 -22 -38 6 -6 11 -22 11 -36
0 -25 0 -25 -28 7 -30 33 -58 43 -48 17 3 -10 -1 -15 -13 -15 -11 0 -22 -6
-24 -12 -4 -8 -8 -4 -12 10 -5 13 -15 22 -27 22 -17 0 -18 -3 -8 -15 10 -12 8
-16 -14 -25 -14 -5 -26 -16 -26 -25 0 -11 -10 -15 -35 -15 -42 0 -46 -14 -7
-28 23 -9 24 -11 5 -11 -12 -1 -29 -4 -38 -7 -11 -5 -18 0 -22 15 -8 30 -42
28 -36 -2 4 -20 1 -24 -19 -23 -18 1 -23 -4 -22 -24 1 -14 -5 -29 -12 -33 -8
-4 -14 -14 -14 -22 0 -15 -35 -30 -50 -20 -16 10 -12 -11 5 -25 20 -17 19 -24
-7 -35 -16 -7 -22 -17 -20 -32 2 -17 -1 -21 -20 -18 -13 1 -30 6 -39 10 -10 3
-20 2 -23 -3 -3 -5 4 -13 17 -17 20 -7 19 -8 -11 -12 -24 -3 -32 -8 -28 -19 6
-15 1 -17 -54 -18 -35 -1 -35 -1 -31 -41 1 -22 3 -59 4 -82 0 -23 4 -40 9 -37
4 3 11 -2 14 -10 4 -10 19 -16 40 -16 23 0 34 -5 34 -14 0 -19 -71 -10 -83 11
-11 18 -27 17 -27 -2 0 -8 -7 -15 -15 -15 -9 0 -18 -7 -21 -14 -6 -15 -67 -16
-81 -2 -3 3 -12 6 -19 6 -11 0 -11 -5 -1 -27 6 -16 15 -30 19 -33 4 -4 11 -21
14 -40 6 -26 4 -31 -6 -25 -10 6 -12 3 -7 -14 4 -17 0 -24 -21 -33 -21 -9 -23
-12 -10 -15 9 -2 15 -10 12 -18 -3 -7 -1 -16 5 -20 6 -3 11 -11 11 -17 0 -6
-8 -4 -17 5 -15 13 -21 13 -35 3 -21 -15 -23 -32 -5 -39 9 -4 8 -8 -3 -16 -13
-10 -13 -13 3 -22 18 -10 18 -12 1 -30 -16 -17 -16 -19 -1 -19 21 0 21 2 -2
-44 -15 -28 -17 -44 -11 -62 5 -13 6 -24 3 -24 -4 0 -2 -5 5 -12 18 -18 15
-28 -8 -28 -11 0 -20 -4 -20 -8 0 -5 -10 -14 -22 -20 -13 -6 -17 -11 -10 -11
6 -1 12 -12 12 -26 0 -14 5 -25 10 -25 19 0 10 -32 -10 -37 -26 -7 -26 -20 1
-28 16 -5 18 -10 8 -21 -6 -8 -21 -14 -33 -14 -19 -1 -19 -2 -3 -11 9 -5 21
-8 25 -5 14 8 8 -62 -6 -76 -17 -17 -15 -42 7 -62 12 -11 16 -25 13 -42 -3
-16 1 -29 9 -35 11 -6 10 -9 -4 -15 -17 -6 -24 -34 -9 -34 12 0 31 -49 21 -56
-5 -3 -19 -2 -32 1 -19 6 -17 2 11 -23 37 -35 39 -42 13 -35 -31 8 -34 -15 -4
-43 15 -14 29 -37 31 -52 5 -42 33 -93 56 -102 12 -5 17 -9 13 -9 -14 -1 26
-61 45 -67 14 -4 16 -9 8 -24 -8 -15 -6 -20 8 -24 20 -7 44 -60 35 -81 -3 -8
3 -22 12 -31 10 -10 13 -20 7 -26 -6 -6 -4 -25 5 -49 7 -22 11 -45 8 -50 -4
-5 -1 -9 5 -9 7 0 9 -8 5 -20 -8 -27 -10 -129 -2 -137 14 -13 38 21 32 44 -4
16 -1 22 7 21 8 -2 12 5 11 17 -1 11 5 24 13 28 12 7 13 12 3 23 -8 10 -8 14
0 14 17 0 13 27 -5 34 -12 5 -14 15 -9 51 4 25 4 53 0 62 -9 21 -13 53 -8 53
15 0 115 -144 106 -153 -2 -3 4 -8 15 -11 11 -4 23 -14 26 -22 4 -12 2 -15 -9
-10 -8 3 -15 1 -15 -5 0 -6 8 -13 19 -16 13 -3 18 -13 17 -34 -1 -16 -4 -29
-8 -29 -5 0 -8 -5 -8 -11 0 -14 26 -40 33 -33 3 4 11 3 18 -2 9 -5 7 -11 -7
-22 -18 -14 -18 -14 -1 -8 10 3 22 6 27 6 4 0 6 9 3 20 -4 14 0 20 11 20 11 0
16 -9 16 -27 1 -69 28 -144 74 -203 26 -33 49 -68 51 -79 5 -29 33 -67 62 -86
16 -11 70 -22 142 -31 431 -49 531 -63 560 -79 26 -13 81 -10 81 5 0 4 31 33
69 64 38 32 114 102 168 157 111 112 198 169 263 169 47 0 70 -8 70 -25 0 -7
4 -15 9 -17 6 -1 12 -38 14 -80 5 -96 51 -199 97 -218 15 -6 48 -30 73 -54 39
-36 45 -47 44 -81 0 -22 -5 -46 -10 -52 -11 -15 -111 -18 -102 -3 3 6 -1 7 -9
4 -9 -4 -16 -1 -16 6 0 20 -98 6 -147 -21 -41 -22 -43 -22 -134 -7 -65 11
-104 12 -133 6 -23 -5 -56 -7 -73 -4 -18 2 -33 1 -33 -5 0 -5 -28 -9 -62 -9
-48 -1 -69 -5 -87 -21 -23 -19 -23 -20 -5 -34 57 -45 92 -54 212 -53 98 0 131
-4 205 -26 49 -14 96 -30 105 -36 16 -9 16 -9 -1 -10 -10 0 -15 -5 -12 -10 4
-6 10 -8 14 -5 5 2 6 -7 3 -22 -3 -17 -1 -24 6 -19 6 3 13 2 17 -4 3 -6 -1
-13 -9 -16 -17 -6 -21 -41 -8 -59 11 -17 37 -11 34 7 -2 12 3 15 18 11 11 -3
23 -10 27 -16 3 -5 1 -7 -4 -4 -6 4 -19 -3 -29 -15 -11 -12 -13 -18 -5 -13 10
6 12 2 6 -14 -5 -18 -2 -21 20 -21 26 0 55 -20 55 -38 0 -5 14 -13 32 -18 51
-15 49 -37 -3 -32 -24 1 -46 6 -50 10 -5 8 -86 -18 -126 -40 -13 -7 -23 -21
-23 -32 0 -34 -1 -34 -259 -41 -31 -1 -47 4 -53 15 -5 9 -16 16 -25 16 -10 0
-14 6 -10 19 4 17 2 17 -24 4 -16 -8 -29 -19 -29 -24 0 -6 -8 -8 -18 -5 -10 4
-37 0 -60 -8 -23 -8 -42 -13 -42 -9 0 3 -6 1 -13 -5 -8 -7 -17 -6 -30 3 -16
11 -17 17 -7 35 7 13 7 20 2 16 -14 -8 -43 4 -36 15 3 5 14 9 25 9 10 0 27 8
38 19 10 10 25 21 32 23 8 3 11 8 8 11 -8 10 -92 12 -116 4 -14 -5 -23 -4 -23
1 0 5 16 13 35 16 35 7 44 19 25 31 -5 3 -10 1 -10 -4 0 -6 -16 -11 -35 -11
-19 0 -35 -4 -35 -9 0 -10 -35 -32 -82 -52 -33 -13 -38 -34 -7 -24 15 5 19 4
15 -4 -4 -6 -14 -11 -22 -11 -8 0 -13 -4 -10 -9 3 -5 15 -7 26 -4 11 3 20 1
20 -4 0 -5 12 -16 28 -23 25 -12 26 -13 7 -21 -29 -11 -35 -11 -32 4 1 8 -15
12 -54 13 -53 1 -56 0 -69 -30 -8 -17 -13 -35 -12 -39 1 -5 3 -31 4 -58 1 -44
4 -52 29 -64 15 -8 38 -15 51 -14 30 1 84 33 80 49 -1 7 7 20 18 30 12 10 20
22 18 25 -4 8 246 7 347 -1 39 -3 108 -13 155 -22 47 -9 106 -15 133 -15 296
7 305 7 329 -9 14 -9 39 -18 55 -20 27 -3 29 -6 22 -25 -6 -15 -13 -21 -24
-16 -13 5 -14 7 -3 14 10 7 9 9 -4 9 -9 0 -20 -4 -23 -10 -3 -5 -15 -10 -25
-10 -22 0 -37 -19 -22 -29 6 -4 -2 -12 -19 -20 -17 -7 -28 -16 -25 -19 3 -3
-3 -11 -14 -19 -11 -8 -20 -21 -20 -29 0 -8 -4 -14 -9 -14 -18 0 -63 -49 -56
-61 5 -7 1 -9 -11 -5 -11 3 -32 -3 -48 -13 -22 -15 -35 -17 -53 -10 -30 11
-72 8 -70 -6 5 -26 -199 -7 -228 22 -8 7 -17 13 -21 13 -15 0 -84 34 -84 42 0
4 -5 8 -10 8 -6 0 -28 11 -50 25 -52 33 -56 32 -30 -10 18 -29 19 -35 6 -35
-9 0 -16 -4 -16 -10 0 -5 7 -10 16 -10 13 0 14 -3 5 -14 -8 -10 -9 -16 -1 -21
5 -3 10 -4 10 -1 0 3 9 -3 20 -14 11 -11 20 -27 20 -35 0 -9 13 -21 28 -28 16
-7 27 -18 24 -25 -4 -14 54 -72 74 -72 7 0 17 -6 21 -14 11 -18 67 -25 115
-14 48 10 69 1 42 -19 -17 -13 -14 -14 31 -13 64 1 147 -18 139 -32 -5 -7 1
-9 14 -6 12 4 24 2 27 -3 3 -5 26 -6 50 -2 31 4 45 2 45 -6 0 -6 -3 -10 -7
-10 -23 4 -70 -3 -83 -11 -12 -8 -13 -12 -2 -19 10 -6 8 -10 -9 -14 -32 -9
-21 -16 32 -20 30 -3 52 1 65 11 16 12 16 14 2 9 -10 -3 -20 -2 -23 3 -4 6 1
10 9 10 9 0 16 5 16 11 0 7 10 9 24 5 14 -3 28 -2 31 4 4 6 -6 10 -22 10 -22
0 -25 2 -13 10 8 5 31 10 50 10 32 -1 33 -2 17 -14 -16 -12 -17 -18 -7 -36 7
-13 8 -25 4 -29 -5 -3 -16 -19 -24 -34 -11 -23 -20 -28 -41 -25 -20 3 -25 0
-22 -12 4 -13 -9 -15 -94 -14 -54 1 -106 5 -115 9 -13 5 -18 2 -18 -10 0 -17
-1 -17 -19 -1 -10 9 -25 14 -35 10 -18 -7 -22 -49 -6 -59 6 -4 8 -11 5 -16 -7
-11 -26 -12 -24 -1 3 18 -2 26 -10 14 -5 -8 -21 -12 -42 -10 l-34 4 28 12 c41
17 33 32 -18 32 -25 0 -45 5 -45 10 0 6 -4 10 -10 10 -5 0 -10 -7 -10 -16 0
-13 -7 -15 -43 -10 -29 5 -55 2 -79 -9 -23 -9 -39 -11 -43 -5 -3 6 2 10 11 10
36 0 4 12 -43 16 -26 2 -53 6 -60 9 -7 2 -15 0 -18 -5 -8 -13 -55 10 -55 28 0
11 -14 13 -72 10 l-73 -3 3 26 c1 15 -4 32 -13 39 -12 10 -15 10 -15 0 0 -8
-3 -10 -6 -7 -4 3 -15 2 -26 -4 -23 -13 -39 -2 -18 11 10 7 11 10 3 10 -7 0
-13 11 -13 24 0 13 6 27 13 29 8 4 6 6 -4 6 -23 1 -49 34 -49 61 0 12 -8 28
-17 35 -15 11 -15 18 -5 54 7 22 17 41 22 41 6 0 10 9 10 20 0 13 -5 18 -15
14 -12 -5 -15 1 -13 27 3 34 3 34 -39 33 -41 -1 -43 0 -44 30 0 27 -2 28 -9
11 -7 -16 -9 -12 -8 17 1 21 0 39 -2 40 -3 2 -14 8 -25 14 -11 6 -26 23 -33
37 -7 15 -20 27 -28 27 -16 0 -19 16 -4 25 8 5 7 11 -1 21 -6 7 -15 12 -19 9
-5 -3 -6 5 -2 17 3 14 1 19 -6 14 -6 -3 -16 3 -22 14 -6 11 -15 18 -21 14 -6
-4 -6 -11 2 -20 9 -11 7 -14 -10 -14 -13 0 -21 6 -21 16 0 9 -9 18 -20 21 -30
8 -26 43 4 43 51 0 74 23 36 35 -12 4 -17 11 -14 18 4 7 -4 2 -18 -11 -13 -12
-27 -19 -31 -16 -4 4 1 13 11 21 12 10 14 16 4 19 -6 3 -9 10 -6 15 8 14 -36
50 -50 42 -13 -8 -48 -12 -41 -5 3 3 -3 14 -12 25 -17 18 -17 20 15 47 37 30
35 55 -4 64 -30 8 -67 -13 -53 -30 5 -6 6 -19 3 -29 -5 -13 -9 -14 -15 -3 -6
8 -9 9 -9 1 0 -6 -9 -9 -20 -6 -16 4 -18 10 -13 32 4 14 7 34 7 44 0 9 6 17
13 17 7 0 13 -6 13 -14 0 -9 7 -12 20 -9 23 6 26 19 8 26 -10 4 -9 6 1 6 9 1
6 8 -10 22 -17 14 -32 19 -51 15 -16 -3 -28 -1 -28 4 0 6 11 10 24 10 14 0 27
4 31 10 3 5 13 7 23 4 9 -2 4 2 -13 10 -16 8 -42 15 -57 16 -21 0 -28 -6 -33
-30 -8 -35 -25 -41 -24 -7 1 12 -2 31 -6 41 -8 18 -5 19 51 14 46 -5 54 -4 37
4 -13 6 -23 15 -23 20 0 4 -8 8 -19 8 -10 0 -32 14 -50 30 -31 30 -40 50 -21
50 6 0 10 11 10 25 0 20 -5 25 -24 25 -15 0 -26 7 -29 20 -3 13 -10 18 -21 14
-30 -12 -16 5 22 26 l37 21 -37 -5 c-22 -3 -38 -1 -38 5 0 6 -15 9 -32 7 -32
-3 -33 -1 -38 37 -3 22 -9 46 -14 53 -4 7 -2 19 4 27 8 10 10 30 6 54 -4 27
-2 41 6 43 21 7 -13 33 -45 36 -23 1 -27 -2 -27 -23 0 -22 9 -30 33 -26 15 2
5 -15 -24 -38 -17 -13 -33 -21 -36 -17 -4 3 -1 6 5 6 7 0 12 9 12 21 0 11 -4
18 -9 15 -5 -3 -7 10 -4 29 4 27 1 35 -11 35 -21 0 -21 29 0 37 33 12 64 50
57 68 -4 13 -3 16 5 11 7 -4 12 -1 12 9 0 9 -4 13 -10 10 -5 -3 -10 2 -10 12
0 15 -7 19 -32 18 -34 0 -58 -10 -58 -24 0 -5 18 -5 40 -1 22 4 40 6 40 4 0
-9 -62 -34 -70 -29 -11 7 -13 -2 -10 -61 1 -23 -3 -45 -9 -48 -5 -4 -7 -22 -4
-41 4 -25 2 -36 -8 -39 -8 -2 -33 -9 -57 -17 -38 -11 -47 -11 -73 5 -17 10
-32 16 -35 14 -2 -3 7 -11 21 -18 24 -13 25 -17 26 -119 1 -58 4 -133 8 -165
6 -56 7 -59 23 -43 20 21 44 21 81 2 15 -8 33 -13 40 -11 7 1 9 1 4 -2 -4 -2
-4 -34 -1 -70 7 -62 6 -66 -10 -53 -10 9 -14 21 -10 33 4 14 0 21 -15 25 -11
3 -18 10 -14 16 6 10 -70 2 -89 -9 -10 -7 -7 -163 3 -170 19 -11 119 52 119
75 0 15 12 14 35 -3 14 -10 19 -24 17 -51 -2 -20 3 -44 9 -51 13 -16 19 -74 8
-74 -10 0 -8 -50 2 -56 5 -3 7 -10 4 -15 -4 -5 1 -9 10 -9 11 0 14 -6 9 -24
-3 -15 1 -34 11 -50 9 -14 16 -26 15 -28 -6 -9 24 -93 36 -106 12 -11 12 -17
4 -26 -9 -8 -18 -3 -34 19 -11 16 -31 40 -43 52 -13 13 -23 30 -23 38 0 7 -6
16 -12 19 -9 3 -8 9 6 20 17 14 17 16 3 22 -13 4 -17 19 -17 54 0 33 -6 54
-21 71 -17 19 -22 21 -29 9 -6 -8 -10 -22 -10 -32 0 -12 -6 -15 -22 -10 -19 5
-20 7 -5 10 22 5 22 32 0 33 -15 0 -15 2 -3 7 34 15 60 38 60 51 0 11 3 11 15
1 8 -7 15 -8 15 -2 0 18 -25 30 -70 32 -92 5 -89 7 -85 -57 3 -32 4 -71 5 -87
0 -26 2 -28 35 -24 32 4 34 2 29 -17 -22 -69 -34 -86 -81 -124 -54 -42 -84
-81 -62 -81 6 0 13 9 16 19 3 11 12 22 20 26 13 4 13 3 4 -8 -6 -8 -10 -25 -9
-38 2 -17 -1 -23 -12 -21 -11 3 -10 -1 3 -16 20 -22 32 -82 17 -82 -6 0 -10
-7 -10 -15 0 -8 7 -15 15 -15 18 0 20 -17 3 -22 -7 -3 -9 -12 -5 -22 4 -11 13
-16 22 -12 17 6 21 -9 5 -19 -16 -10 -11 -25 8 -23 44 3 60 -3 66 -26 3 -14
15 -28 26 -31 11 -4 18 -11 15 -16 -4 -5 3 -9 15 -9 14 0 20 -5 18 -17 -2 -13
5 -19 22 -21 18 -2 29 -12 37 -33 7 -17 21 -33 32 -36 12 -3 25 -19 32 -40 7
-21 21 -39 37 -46 38 -16 38 -16 16 -31 -18 -14 -18 -15 11 -27 l30 -12 -25
-7 c-14 -5 -37 -8 -52 -9 -23 -1 -28 3 -28 24 0 15 6 25 15 25 9 0 12 6 9 15
-5 12 -8 12 -20 0 -8 -7 -14 -20 -14 -28 0 -24 -11 -26 -31 -6 -13 13 -18 27
-14 40 4 11 2 19 -4 19 -6 0 -11 -9 -11 -20 0 -20 -1 -20 -26 4 -24 22 -26 29
-20 74 6 48 5 51 -21 60 -25 9 -26 10 -5 11 26 1 28 13 6 35 -18 19 -18 19
-68 5 -35 -10 -38 -13 -34 -40 3 -21 0 -29 -11 -29 -14 0 -14 -1 -1 -10 13 -9
13 -10 0 -10 -23 1 -60 36 -60 58 0 15 -6 20 -22 19 -27 -1 -50 -28 -38 -42
14 -17 -2 -32 -40 -39 -19 -3 -29 -3 -22 0 6 3 12 9 12 13 0 11 -70 13 -84 3
-10 -9 -68 -21 -111 -24 -11 -1 -28 2 -39 7 -16 7 -17 6 -7 -12 12 -23 -1 -33
-43 -33 -12 0 -26 -4 -32 -8 -5 -5 -25 -15 -44 -22 -19 -7 -56 -28 -82 -46
-26 -19 -58 -36 -72 -40 -13 -3 -32 -13 -43 -23 -10 -9 -26 -20 -36 -24 -16
-6 -17 -171 -17 -3262 l0 -3255 2764 0 2764 0 11 64 c14 78 14 116 1 116 -15
0 -12 31 4 49 8 9 21 45 30 81 22 97 33 120 55 120 11 0 22 4 26 9 3 5 18 12
33 16 26 5 42 35 19 35 -5 0 -7 14 -3 31 3 17 2 38 -3 47 -5 9 -5 26 0 37 7
18 8 18 9 -5 2 -18 4 -14 11 15 13 65 11 105 -6 105 -17 0 -20 26 -4 35 6 4 7
19 4 36 -5 24 -4 28 9 23 9 -3 16 -2 16 4 0 6 3 18 6 26 4 11 2 15 -7 11 -8
-3 -20 -1 -28 4 -17 11 -7 94 14 115 13 12 12 15 0 20 -21 8 -19 26 3 27 13 0
12 3 -5 11 -13 6 -23 15 -23 20 0 4 -15 8 -32 8 -25 0 -29 -3 -18 -10 20 -13
-1 -13 -35 0 -19 7 -24 7 -19 -1 4 -7 1 -10 -6 -7 -26 8 -22 28 4 28 14 0 26
5 26 10 0 6 -9 10 -20 10 -23 0 -27 18 -5 26 8 4 15 11 15 16 0 26 87 111 136
134 62 28 64 29 64 9 0 -9 6 -15 13 -14 6 1 32 0 57 -1 l45 -2 -33 -9 c-28 -8
-31 -12 -22 -29 5 -10 10 -28 10 -40 0 -38 34 -19 49 28 11 35 16 41 27 31 10
-9 12 -15 4 -23 -15 -15 -12 -36 5 -30 10 4 15 0 15 -15 0 -24 18 -28 26 -7 3
8 12 12 20 9 8 -3 14 0 14 7 0 6 5 8 10 5 6 -4 8 -10 5 -15 -5 -8 25 -22 41
-19 29 5 42 -2 37 -21 -4 -14 1 -21 22 -26 15 -4 23 -9 17 -13 -5 -3 -9 -14
-9 -24 0 -17 21 -35 72 -63 11 -6 21 -21 23 -33 5 -31 29 -37 51 -12 19 22 51
29 51 11 0 -6 -7 -13 -15 -16 -8 -4 -15 -12 -15 -20 0 -8 -6 -11 -15 -7 -13 4
-15 -1 -12 -31 3 -26 0 -39 -12 -46 -10 -6 -11 -10 -3 -10 7 0 18 -12 25 -27
6 -16 18 -33 25 -38 7 -6 15 -23 18 -39 3 -16 24 -48 48 -72 24 -23 46 -50 50
-59 8 -21 45 -16 60 8 8 13 8 20 -2 26 -8 4 -13 12 -12 17 1 4 -7 12 -17 16
-16 6 -16 7 4 14 13 3 20 10 17 16 -9 14 16 38 40 37 19 -1 18 -2 -4 -8 l-25
-7 23 -8 c17 -6 22 -15 22 -42 0 -19 4 -34 9 -34 14 0 19 -49 6 -60 -6 -5 -15
-6 -20 -2 -4 4 -5 -3 -2 -15 3 -15 1 -23 -8 -23 -7 0 -15 -11 -17 -24 -4 -18
0 -26 15 -30 10 -2 16 -9 12 -15 -3 -6 -1 -11 5 -11 7 0 14 9 17 20 3 11 12
20 20 20 10 0 12 6 8 20 -3 11 -2 20 3 20 5 0 12 -9 15 -20 3 -11 1 -20 -4
-20 -15 0 -10 -20 12 -51 11 -16 15 -29 9 -29 -6 0 -8 -5 -5 -11 5 -7 13 -5
24 5 10 9 22 16 27 16 5 0 2 -5 -6 -10 -12 -8 -9 -10 13 -10 23 0 26 3 18 17
-5 10 -19 24 -30 32 -15 11 -17 18 -10 27 6 7 8 18 4 24 -5 8 -12 5 -22 -7
-13 -16 -13 -16 -3 5 8 17 8 27 0 37 -7 9 -8 15 0 20 15 9 13 65 -3 65 -7 0
-18 -5 -24 -11 -7 -7 -12 -3 -15 15 -4 20 -1 26 13 26 9 0 20 -6 22 -12 4 -10
6 -10 6 -1 1 7 -9 21 -21 32 -15 14 -24 39 -30 82 -6 44 -14 66 -28 76 -12 9
-20 26 -20 43 0 33 -18 49 -31 29 -7 -11 -9 -10 -9 4 0 11 -14 24 -36 33 -28
12 -34 18 -25 27 10 9 16 8 26 -7 13 -17 15 -17 21 -3 8 22 -3 37 -22 30 -18
-7 -55 25 -53 46 2 29 -1 41 -11 41 -5 0 -10 -12 -11 -27 -1 -27 -2 -26 -12 7
-6 19 -14 37 -17 40 -12 9 -20 40 -11 40 5 0 11 -5 13 -12 2 -6 10 -8 16 -4 7
4 10 16 7 25 -11 35 18 43 57 16 76 -51 137 -84 131 -69 -3 8 -10 14 -15 14
-7 0 -7 5 -1 13 13 18 16 67 4 67 -6 0 -11 7 -11 15 0 8 5 15 11 15 6 0 9 10
7 23 -2 18 -9 22 -35 22 -37 0 -44 19 -15 41 16 13 15 14 -6 20 -15 4 -21 12
-17 22 4 11 0 13 -15 9 -19 -5 -24 3 -21 30 1 7 -5 13 -12 13 -9 0 -17 14 -21
35 -6 31 -26 51 -26 26 0 -16 -42 -24 -51 -10 -4 7 -10 11 -13 8 -6 -6 -14
-72 -15 -126 -1 -30 -5 -43 -15 -43 -14 0 -86 92 -86 110 0 6 -4 10 -10 10 -5
0 -10 14 -10 31 0 30 -37 79 -60 79 -5 0 -24 16 -41 35 -18 19 -38 35 -45 35
-7 0 -33 29 -59 64 -25 35 -62 76 -83 91 -20 16 -45 38 -54 49 -18 22 -25 72
-9 62 5 -4 7 3 4 15 -7 24 -20 14 -26 -21 -3 -21 -5 -19 -6 8 0 19 -5 31 -11
27 -6 -4 -10 5 -10 21 0 27 -44 95 -116 179 -38 45 -64 88 -64 108 0 9 -10 39
-21 65 -12 26 -28 62 -36 80 -8 18 -35 58 -61 90 -75 92 -104 147 -106 199 0
18 -4 33 -7 33 -3 0 -18 22 -32 48 -24 44 -29 48 -57 44 -24 -3 -38 3 -70 32
-22 20 -37 36 -33 36 3 0 -1 8 -9 18 -9 9 -23 33 -32 52 -33 69 -74 102 -117
93 -27 -5 -28 -5 -31 48 l-3 54 -46 1 c-33 0 -52 7 -68 23 -12 12 -27 19 -33
15 -7 -5 -9 -2 -6 8 9 22 -54 108 -79 108 -9 0 -11 12 -6 45 4 31 2 45 -6 45
-6 0 -11 -6 -12 -12 0 -7 -4 -4 -8 7 -6 15 -3 22 13 28 17 7 18 10 6 17 -11 7
-12 10 -2 10 8 0 -1 14 -18 32 -18 17 -43 48 -56 69 -13 21 -40 45 -59 55 -20
9 -41 26 -47 38 -6 11 -21 32 -33 46 -13 14 -42 72 -65 130 -24 58 -50 122
-58 143 -12 29 -21 37 -41 38 -24 2 -24 2 -3 6 30 6 28 19 -5 31 -19 7 -22 11
-10 11 26 1 16 24 -14 32 -13 4 -18 7 -11 8 26 2 12 31 -15 31 -24 1 -25 2
-10 11 25 15 21 27 -10 32 -27 4 -27 4 -5 12 28 9 23 31 -6 27 -26 -4 -28 5
-7 27 15 17 15 13 -21 166 -17 76 -123 402 -147 456 -26 60 -84 212 -110 289
-14 41 -46 118 -72 170 -44 89 -71 166 -82 235 -3 17 -10 35 -15 41 -5 7 -26
52 -47 100 -20 49 -72 141 -113 204 -111 168 -109 180 18 180 64 0 85 3 81 13
-2 6 -18 11 -36 11 -17 -1 -31 2 -31 7 0 5 -16 9 -35 9 -60 0 -33 40 32 47 35
4 52 16 53 36 0 5 -9 5 -21 2 -12 -4 -65 -10 -119 -14 -79 -5 -97 -4 -92 7 2
8 -1 13 -9 12 -30 -5 -39 2 -84 58 -53 64 -117 112 -150 112 -12 0 -38 11 -58
24 -19 13 -49 27 -67 31 -52 12 -100 34 -100 48 0 6 9 23 20 37 15 21 27 25
67 25 43 0 48 2 49 23 1 12 -1 20 -4 18 -4 -5 -52 76 -52 87 0 3 9 7 20 10 12
3 18 11 15 19 -3 8 4 24 15 36 14 15 19 29 15 43 -4 11 -1 27 6 35 6 8 9 17 6
20 -7 8 14 67 27 76 6 4 12 11 12 15 6 32 19 53 34 53 10 0 23 6 29 14 10 11
9 16 -5 24 -14 8 -13 11 13 22 33 15 61 60 37 60 -23 0 -16 20 11 30 14 5 25
13 25 18 0 36 235 70 367 53 39 -5 76 -12 81 -15 6 -3 26 1 46 9 19 8 47 15
61 15 20 0 25 5 25 24 0 25 -36 56 -65 56 -8 0 -15 5 -15 10 0 14 -67 13 -93
-2 -12 -6 -39 -13 -61 -14 -21 -1 -42 -7 -45 -13 -9 -14 -59 -11 -86 5 -12 7
-28 9 -40 4 -18 -7 -17 -8 9 -15 22 -6 25 -10 13 -16 -18 -11 -82 14 -90 35
-4 10 -1 13 7 10 15 -6 18 26 3 44 -7 9 -7 16 -1 20 10 7 31 78 41 140 3 17
10 32 15 32 7 0 8 17 5 45 -4 25 -2 47 3 50 6 3 10 1 10 -5 0 -6 4 -8 10 -5 5
3 10 13 10 21 0 8 -4 13 -9 9 -17 -10 -22 13 -9 36 10 17 10 23 1 26 -14 5
-18 24 -5 22 18 -3 33 2 28 9 -3 5 20 9 51 10 70 2 93 9 93 30 0 12 -3 13 -12
4 -17 -17 -48 -15 -48 2 0 8 5 18 10 21 6 3 10 11 10 16 0 6 -4 8 -9 5 -5 -3
-8 2 -7 11 2 33 -30 25 -44 -12 -14 -35 -29 -46 -31 -22 -3 25 3 41 19 54 10
7 14 13 10 13 -4 0 2 19 12 43 11 23 20 59 20 79 0 20 5 40 11 44 6 3 9 15 6
25 -3 10 -2 21 2 24 4 2 6 18 3 35 -2 16 0 30 6 30 5 0 10 16 9 35 -1 25 -5
34 -14 31 -19 -8 -1 23 26 46 12 10 21 23 21 29 0 6 -7 3 -16 -5 -8 -9 -22
-16 -30 -16 -18 0 -18 29 1 36 10 4 12 15 8 37 -5 27 -4 29 13 23 41 -17 53
-17 74 1 27 23 52 81 45 104 -11 33 12 57 61 65 43 6 73 33 46 42 -6 2 -8 10
-5 18 3 8 0 14 -6 14 -9 0 -9 5 0 21 6 12 14 46 18 75 6 45 5 57 -11 71 -22
20 -23 33 -3 33 10 0 15 9 14 28 0 26 -1 26 -9 5 -6 -16 -14 -21 -26 -16 -15
5 -15 7 0 15 22 12 20 28 -4 28 -12 0 -26 12 -36 33 -9 17 -32 47 -51 65 -26
24 -34 39 -29 54 3 12 1 27 -5 34 -9 11 1 24 59 73 13 11 21 24 18 30 -4 5 -2
13 4 16 6 4 8 15 5 26 -4 11 -2 19 4 19 6 0 1 10 -10 21 -14 14 -18 24 -10 28
6 4 8 19 5 35 -2 15 -1 33 4 40 15 18 14 156 0 174 -10 12 -10 16 -1 19 15 5
-4 53 -21 53 -6 0 -5 4 2 9 7 4 18 41 25 81 9 61 9 74 -4 84 -8 6 -13 23 -11
39 2 16 -1 41 -6 57 -7 18 -7 43 -1 70 7 29 6 46 -2 56 -6 7 -8 18 -4 24 3 5
-3 24 -15 40 -12 16 -18 34 -15 40 3 5 0 7 -9 4 -20 -8 -38 4 -29 19 9 15 4
99 -8 113 -5 6 -4 15 3 22 8 8 7 13 -5 18 -21 8 -22 30 -2 38 8 3 15 9 15 13
0 14 -60 35 -81 30 -25 -7 -39 25 -39 89 0 41 -13 59 -23 32 -4 -10 -7 -10
-18 0 -11 10 -10 12 5 12 16 0 17 6 11 48 -4 26 -10 48 -14 50 -5 1 -17 9 -27
18 -18 13 -17 14 11 8 25 -6 28 -4 17 7 -13 14 -17 15 -47 18 -24 2 -17 18 7
17 13 -1 23 5 24 12 1 6 2 17 3 22 0 6 13 10 27 10 14 0 39 8 55 17 28 17 29
20 29 91 0 46 -4 71 -10 67 -13 -8 -13 1 1 26 6 12 8 28 4 37 -6 16 -7 16 -16
0 -6 -10 -18 -18 -27 -18 -15 0 -15 -2 -2 -10 11 -7 6 -10 -20 -10 -39 -1 -69
-19 -63 -37 6 -17 -12 -16 -26 1 -6 8 -23 16 -37 19 -36 7 -25 -16 14 -28 30
-9 44 -25 22 -25 -5 0 -10 -4 -10 -10 0 -5 7 -10 15 -10 8 0 15 -4 15 -10 0
-13 -17 -13 -25 0 -9 14 -35 0 -35 -20 0 -22 -29 -48 -38 -34 -12 16 -60 37
-71 30 -7 -5 -10 1 -8 16 2 18 -3 24 -26 26 -15 2 -32 13 -39 25 -14 26 -38
46 -57 47 -17 0 -66 51 -63 66 1 6 -16 14 -38 18 -23 3 -38 10 -35 15 9 15
-35 24 -51 10 -12 -9 -18 -9 -27 0 -9 9 -9 14 3 21 8 5 18 6 22 4 4 -3 8 -1 8
5 0 16 -20 23 -34 12 -14 -12 -26 -5 -26 17 0 17 -40 51 -60 52 -22 0 -40 20
-40 43 0 44 -51 98 -62 65 -2 -6 -12 -13 -21 -15 -35 -7 -42 -9 -52 -15 -6 -4
-16 2 -23 12 -8 13 -8 21 -1 25 6 4 3 12 -8 21 -24 18 -54 18 -47 0 9 -24 -29
-37 -60 -20 -16 8 -37 14 -48 14 -17 0 -18 3 -8 15 16 19 4 35 -26 35 -13 0
-24 5 -24 11 0 8 -6 7 -16 -2 -9 -7 -30 -12 -46 -10 -30 3 -91 34 -84 42 2 2
6 16 10 32 5 20 3 27 -8 27 -39 0 -39 -68 0 -108 16 -16 16 -17 1 -20 -22 -4
-51 24 -43 44 4 9 -4 19 -22 27 -15 6 -30 16 -34 22 -5 7 -8 7 -8 0 0 -16 -39
-37 -53 -28 -7 4 -21 8 -32 8 -15 0 -19 6 -18 25 2 16 0 20 -5 10 -4 -8 -16
-15 -26 -15 -28 0 -31 -23 -4 -28 18 -3 15 -5 -9 -6 -18 0 -41 -10 -52 -22
-18 -20 -20 -20 -29 -3 -10 18 -11 18 -32 -1 -24 -22 -25 -1 -1 25 13 13 11
16 -13 25 -18 6 -29 18 -33 37 -4 19 -12 28 -24 28 -16 0 -19 -8 -21 -47z
m-134 -658 c9 -9 39 -19 68 -22 29 -3 58 -10 65 -15 7 -5 17 -7 22 -4 5 4 12
2 15 -3 3 -5 15 -7 26 -4 11 3 20 0 20 -6 0 -19 38 -12 54 10 15 22 36 18 36
-7 0 -8 -4 -13 -9 -9 -5 3 -12 1 -16 -5 -3 -5 3 -10 14 -10 13 0 21 7 22 18 0
9 3 12 5 5 4 -8 16 -10 34 -6 16 3 42 1 59 -5 22 -8 31 -7 35 1 2 7 5 4 5 -5
1 -10 6 -18 11 -18 6 0 9 -6 8 -12 -2 -7 4 -13 12 -13 8 0 20 -4 27 -8 7 -4
21 -2 33 5 15 10 24 10 39 1 10 -6 39 -14 64 -18 25 -4 48 -13 51 -21 3 -8 19
-14 36 -14 16 0 30 -5 30 -10 0 -6 11 -8 27 -4 20 5 25 4 21 -7 -4 -10 3 -14
20 -16 14 0 31 -8 37 -16 26 -36 163 -51 195 -22 11 10 24 14 31 9 7 -4 25 -9
39 -10 85 -8 124 -17 153 -33 17 -11 55 -22 82 -25 32 -4 56 -14 67 -26 9 -11
23 -20 32 -20 9 0 16 -6 16 -14 0 -8 9 -18 20 -21 11 -3 20 -11 20 -16 0 -6 4
-8 8 -5 4 2 13 -4 20 -15 8 -12 9 -19 1 -19 -5 0 -7 -4 -4 -10 3 -5 15 -10 26
-10 18 0 23 -10 20 -37 -1 -7 2 -13 8 -13 5 0 11 6 14 13 3 8 7 6 12 -7 5 -12
3 -21 -6 -27 -8 -4 -23 -14 -34 -23 -19 -14 -18 -15 20 -10 37 4 38 4 15 -7
l-25 -12 25 -5 c14 -2 32 -12 41 -21 18 -20 18 -67 -1 -63 -7 2 -10 -3 -7 -12
3 -8 -2 -16 -14 -19 -10 -3 -19 -12 -19 -21 0 -9 -4 -16 -10 -16 -5 0 -10 -7
-10 -16 0 -13 -3 -14 -15 -4 -12 10 -24 10 -60 -1 -25 -7 -45 -19 -45 -26 0
-7 -4 -13 -10 -13 -5 0 -10 -7 -10 -15 0 -8 5 -15 10 -15 6 0 2 -10 -10 -22
-20 -21 -20 -21 -35 -2 -14 18 -14 18 -8 -3 4 -17 1 -23 -11 -23 -9 0 -16 -8
-16 -20 0 -22 16 -27 23 -7 2 7 8 8 13 3 5 -5 4 -11 -3 -13 -7 -2 -11 -10 -9
-16 1 -7 1 -9 -1 -4 -3 4 -13 7 -24 7 -12 0 -16 -5 -13 -15 7 -17 -30 -68 -40
-57 -4 4 -5 -5 -1 -19 4 -18 1 -31 -9 -42 -21 -20 -20 -36 1 -59 10 -12 13
-22 8 -26 -16 -11 -18 -45 -3 -40 9 4 14 -4 15 -24 1 -17 8 -37 14 -44 10 -12
9 -13 -5 -8 -9 3 -16 1 -16 -5 0 -6 6 -11 13 -12 10 0 10 -2 0 -6 -25 -9 -13
-23 15 -17 20 4 23 3 13 -4 -20 -14 -23 -42 -5 -49 8 -3 14 -12 14 -19 0 -8 6
-17 14 -20 8 -3 12 -13 9 -25 -3 -10 0 -19 6 -19 5 0 8 -6 5 -14 -3 -8 -12
-12 -20 -9 -9 3 -14 -2 -14 -16 0 -14 -10 -26 -27 -33 -16 -7 -36 -21 -45 -32
-15 -18 -20 -19 -38 -8 -15 9 -26 10 -40 2 -10 -5 -30 -10 -43 -10 -13 0 -39
-7 -57 -16 -24 -12 -34 -14 -39 -5 -8 13 -41 4 -41 -10 0 -5 9 -9 20 -9 32 0
24 -18 -33 -74 -29 -28 -56 -59 -60 -68 -8 -22 -61 -26 -155 -13 -66 9 -75 13
-90 40 -9 17 -20 32 -24 33 -14 6 -8 22 7 22 8 0 15 -8 15 -18 0 -31 71 -55
146 -50 54 3 69 9 92 31 22 22 25 31 16 45 -9 14 -6 19 18 27 39 13 37 27 -4
31 -39 3 -307 34 -322 37 -12 2 -12 -7 0 -37 6 -17 4 -18 -20 -12 -15 4 -40
18 -54 32 -15 13 -38 27 -52 31 -14 3 -33 14 -43 24 -17 19 -34 23 -69 20 -10
-1 -18 2 -18 7 0 18 -70 52 -105 52 -26 0 -33 -3 -29 -15 4 -8 2 -15 -4 -15
-5 0 -15 7 -22 15 -7 8 -27 15 -46 15 -18 0 -39 -7 -48 -15 -8 -8 -27 -16 -43
-16 l-28 -2 28 -4 c15 -2 27 -9 27 -14 0 -5 -48 -7 -120 -3 -74 3 -120 2 -120
-4 0 -12 58 -22 128 -22 28 0 52 -4 52 -10 0 -6 -46 -10 -119 -10 -69 0 -122
-4 -126 -10 -9 -15 -37 -12 -78 9 -21 11 -73 22 -120 27 -86 8 -79 21 13 23
58 2 35 16 -40 24 -42 5 -65 2 -95 -12 -53 -24 -136 -99 -133 -119 2 -9 -10
-22 -27 -30 -16 -9 -38 -19 -48 -24 -10 -5 -27 -6 -38 -3 -11 4 -28 1 -37 -7
-15 -12 -16 -11 -3 5 12 15 11 17 -3 17 -10 0 -16 -8 -16 -22 0 -37 -15 -51
-44 -44 -22 5 -26 12 -26 46 0 21 5 42 10 45 17 11 11 33 -11 40 -16 5 -20 13
-16 32 3 18 1 23 -10 18 -12 -4 -14 3 -11 37 3 30 0 46 -10 54 -13 9 -11 12
11 18 29 7 36 33 15 55 -11 11 -10 13 4 8 14 -5 17 -1 15 16 -1 14 3 22 13 22
24 0 39 20 33 44 -3 11 -1 21 5 21 13 0 10 24 -7 44 -18 22 -5 39 20 26 15 -9
19 -7 19 5 0 8 -9 15 -20 15 -24 0 -28 38 -5 46 18 7 20 44 3 44 -6 0 -3 6 7
14 15 11 22 11 44 0 31 -17 41 -17 41 -4 0 6 -8 10 -17 10 -19 1 -60 27 -52
33 2 3 16 7 32 11 20 5 27 3 27 -9 0 -19 16 -20 24 0 3 9 0 15 -10 15 -11 0
-15 6 -11 20 3 11 0 20 -6 20 -6 0 -18 7 -28 16 -15 14 -16 18 -4 30 20 20 27
17 15 -6 -9 -16 -8 -20 5 -20 8 0 15 7 15 15 0 8 4 15 10 15 24 0 -5 30 -35
36 -30 5 -33 9 -32 40 1 33 2 34 35 28 l35 -7 -6 44 c-3 24 -9 55 -13 68 -6
20 -4 23 8 18 9 -3 23 2 32 12 15 16 14 17 -13 13 -26 -4 -29 -1 -24 16 4 18
9 19 32 11 23 -10 29 -7 51 20 19 24 25 42 25 85 1 37 6 61 18 74 9 10 14 22
10 25 -3 4 2 13 11 20 12 9 19 28 20 56 0 23 2 37 4 31 2 -5 10 -10 18 -10 7
0 11 6 8 14 -3 8 3 15 14 18 15 4 19 13 17 39 -3 31 -1 34 26 34 32 0 35 -4
17 -25 -7 -8 -2 -6 12 5 14 11 27 21 30 23 2 2 -2 7 -9 11 -11 7 -10 13 4 35
10 14 23 26 30 26 7 0 16 7 19 16 5 13 9 14 21 4 18 -15 35 -5 35 21 0 10 5
19 12 19 6 0 8 3 5 7 -13 12 33 36 47 24 9 -7 22 -3 49 16 20 14 60 31 89 39
69 16 64 16 82 -1z m1523 -1373 c12 10 14 9 12 -3 -7 -27 23 -77 54 -93 18 -9
26 -16 19 -16 -7 0 -20 -7 -28 -15 -14 -13 -10 -15 33 -16 26 -1 39 -4 28 -6
-11 -3 -26 -10 -33 -16 -9 -7 -19 -7 -35 1 -41 19 -62 25 -87 23 -14 -1 -34 4
-44 12 -19 14 -19 15 -2 32 9 10 20 30 23 46 4 24 8 27 19 18 14 -12 18 -5 15
31 0 11 1 11 5 2 5 -10 9 -10 21 0z m-1738 -848 c2 -2 -7 -7 -19 -12 l-24 -9
24 -6 c13 -3 30 -1 37 5 7 6 13 8 13 4 0 -3 11 -1 25 4 20 7 25 6 25 -5 0 -8
9 -15 20 -15 25 0 26 17 3 23 -10 3 -3 5 15 6 26 1 32 -3 32 -20 0 -14 6 -19
18 -17 9 1 23 -2 31 -7 10 -5 16 -4 19 3 5 15 88 16 97 2 3 -5 1 -10 -5 -10
-6 0 -3 -11 7 -25 18 -25 46 -31 91 -19 13 4 21 12 18 19 -3 8 6 12 25 13 19
0 29 -4 29 -14 0 -8 5 -14 10 -14 6 0 10 4 10 9 0 5 9 11 20 14 28 7 35 6 32
-4 -1 -5 3 -9 10 -9 6 0 4 -8 -6 -19 -16 -17 -16 -19 1 -25 17 -7 17 -8 -1
-22 -25 -18 -44 -18 -80 1 -19 10 -58 15 -120 15 -152 0 -267 16 -429 57 -32
8 -66 12 -74 9 -23 -9 -49 2 -50 21 -1 15 7 18 45 17 54 -1 74 4 66 17 -11 19
8 29 44 23 20 -4 39 -8 41 -10z m1721 -385 c123 -10 170 -22 210 -53 l25 -19
-28 5 c-26 5 -27 4 -21 -27 4 -21 1 -35 -6 -40 -9 -6 -9 -10 1 -17 11 -8 10
-9 -4 -4 -10 3 -26 -3 -37 -14 -11 -11 -20 -17 -20 -13 0 4 -5 2 -12 -5 -8 -8
-8 -15 0 -24 15 -19 1 -40 -18 -28 -10 6 -11 10 -3 10 7 0 10 7 6 16 -3 9 -9
11 -12 6 -3 -5 -21 -13 -39 -17 -18 -4 -36 -14 -40 -23 -9 -22 -63 -23 -80 -3
-10 14 -11 12 -6 -11 5 -25 3 -28 -17 -27 -13 0 -18 3 -11 6 19 8 14 23 -9 23
-11 0 -17 5 -14 10 3 6 -2 11 -12 11 -10 1 -22 2 -28 4 -5 1 -16 3 -23 3 -9 1
-11 9 -7 22 4 11 2 20 -4 20 -8 0 -66 107 -103 192 -6 16 2 17 95 12 56 -3
154 -9 217 -15z m-804 -3110 c4 -7 20 -8 41 -4 19 3 40 2 46 -3 7 -6 23 -12
37 -14 18 -2 24 -8 22 -22 -3 -14 1 -17 12 -13 10 4 16 1 16 -8 0 -8 -5 -15
-10 -15 -6 0 1 -11 15 -25 22 -23 30 -49 27 -95 0 -7 6 -26 13 -40 8 -15 21
-60 30 -101 10 -41 21 -83 27 -94 5 -11 9 -32 10 -45 1 -14 10 -61 21 -105 11
-44 20 -95 21 -112 1 -18 4 -33 7 -33 7 0 16 -44 24 -123 2 -26 11 -62 19 -80
8 -18 18 -52 21 -77 4 -25 12 -51 17 -58 6 -7 12 -29 13 -50 1 -20 6 -48 12
-62 15 -38 24 -90 14 -90 -4 0 -7 -10 -7 -22 1 -19 -6 -24 -34 -29 l-35 -5 28
-8 c18 -5 32 -4 42 4 12 10 18 10 31 -1 14 -12 14 -14 -3 -20 -16 -7 -16 -8 0
-8 13 -1 17 -10 17 -37 0 -20 -4 -33 -10 -29 -5 3 -13 -9 -18 -26 -5 -22 -15
-33 -30 -36 -12 -1 -23 0 -23 5 -1 4 -3 18 -4 31 -1 13 -9 27 -16 32 -8 4 -14
12 -15 16 0 4 -8 25 -17 45 -19 42 -21 58 -8 58 16 0 6 35 -12 42 -26 11 -31
35 -12 54 20 20 9 34 -31 37 -27 2 -29 5 -26 31 3 15 0 31 -6 35 -6 4 -13 39
-16 79 -5 76 -11 96 -27 86 -6 -3 -9 0 -8 7 4 23 -13 162 -22 179 -14 25 -39
109 -39 130 0 10 -5 22 -11 26 -6 3 -9 14 -6 24 3 11 -1 21 -8 24 -7 2 -16 18
-20 35 -4 17 -10 31 -15 31 -4 0 -8 16 -7 35 1 19 5 35 10 35 4 0 6 4 2 10 -3
5 -12 7 -19 4 -11 -4 -14 7 -13 48 1 76 -7 137 -17 135 -5 -1 -9 10 -10 26 -1
15 3 27 9 28 5 1 -1 4 -15 8 -21 6 -25 13 -22 40 1 20 -2 30 -8 26 -6 -4 -10
5 -10 21 0 22 -3 24 -14 15 -15 -13 -32 1 -21 18 3 5 0 13 -7 17 -8 5 -6 10 8
15 27 11 32 10 40 -2z m-390 -48 c6 -35 11 -41 38 -47 27 -6 28 -8 11 -14 -11
-4 -26 -3 -32 2 -13 10 -17 -2 -16 -39 1 -7 -3 -13 -7 -13 -4 0 -5 -11 -2 -25
2 -14 11 -25 19 -25 9 0 13 6 9 15 -3 8 0 15 6 15 7 0 8 -14 4 -40 -4 -25 -2
-40 4 -40 5 0 10 5 10 12 0 9 3 9 12 0 9 -9 16 -8 32 7 28 25 107 50 140 44
30 -6 41 -18 26 -28 -5 -3 -10 -2 -10 3 0 6 -9 8 -20 5 -10 -3 -19 -8 -18 -12
0 -3 -1 -9 -2 -13 -1 -5 -3 -14 -4 -20 0 -7 -11 -14 -23 -16 -13 -2 -23 -9
-24 -15 0 -7 -3 -24 -5 -39 -3 -20 -1 -26 9 -22 16 6 34 -13 35 -36 0 -8 3
-37 6 -65 4 -30 3 -42 -2 -31 -6 14 -11 16 -16 8 -5 -9 -24 -4 -69 20 -34 18
-66 39 -70 46 -4 6 -14 12 -21 12 -30 0 -46 35 -45 101 0 35 0 115 0 177 -1
112 13 150 25 73z m1434 -18 c48 -11 69 -33 76 -79 3 -24 10 -47 15 -50 5 -3
9 -14 9 -24 0 -10 8 -26 17 -35 14 -14 14 -21 4 -37 -8 -12 -10 -35 -5 -64 4
-27 2 -44 -4 -44 -5 0 -13 -10 -17 -22 -4 -14 -8 -18 -12 -10 -2 6 -11 12 -19
12 -19 0 -34 41 -34 94 0 51 -18 73 -48 57 -26 -14 -38 1 -45 54 -8 61 -10 68
-34 88 -19 15 -21 21 -10 38 6 10 17 19 24 19 7 0 13 5 13 11 0 7 8 9 23 4 12
-3 33 -9 47 -12z m-653 -85 c33 -97 54 -180 49 -193 -3 -8 0 -17 5 -21 6 -3 9
-15 6 -25 -3 -10 -1 -22 5 -25 5 -3 8 -15 5 -25 -3 -10 -1 -22 5 -25 5 -3 7
-17 4 -29 -4 -14 -1 -25 6 -27 6 -2 9 -11 5 -20 -9 -25 -49 -11 -42 13 4 13 1
19 -9 19 -9 0 -16 5 -16 11 0 5 4 8 9 5 5 -3 11 4 14 15 4 14 2 19 -8 16 -20
-8 -37 14 -24 30 8 9 8 13 1 13 -6 0 -16 18 -22 40 -14 51 -30 52 -24 3 4 -29
3 -34 -5 -23 -12 17 -11 80 1 80 4 0 8 6 8 14 0 26 -33 121 -46 132 -11 9 -10
15 7 32 29 32 53 28 66 -10z m372 -38 c10 0 11 -3 2 -13 -13 -16 -5 -27 20
-27 12 0 16 -5 13 -14 -4 -10 9 -21 41 -36 25 -12 44 -26 42 -33 -4 -13 31
-88 47 -99 6 -4 6 -11 -1 -20 -7 -7 -10 -33 -7 -57 5 -59 -2 -65 -40 -36 -18
14 -40 25 -49 25 -10 0 -17 5 -17 11 0 6 9 9 19 6 17 -4 18 -2 11 19 -7 18 -5
26 8 33 16 10 16 10 -1 11 -37 0 -77 30 -77 55 0 14 -9 34 -20 45 -11 11 -20
25 -20 30 0 7 -6 7 -19 1 -17 -10 -19 -7 -16 24 2 19 0 34 -3 34 -19 -3 -32 2
-32 12 0 6 9 9 20 6 11 -3 20 -1 20 4 0 5 -6 9 -12 9 -9 0 -8 4 2 10 8 6 24 8
35 5 11 -2 26 -5 34 -5z m121 -400 c4 0 13 7 20 15 7 8 16 15 19 15 15 0 51
-42 50 -58 -1 -16 -2 -16 -6 1 -5 20 -13 21 -48 5 -34 -15 -33 -49 2 -65 20
-10 30 -10 41 -1 12 10 14 9 10 -7 -2 -11 -10 -19 -16 -17 -8 1 -10 -6 -7 -21
4 -15 -2 -38 -15 -63 -28 -51 -40 -63 -40 -41 0 9 -4 17 -8 17 -4 0 -9 15 -10
33 -2 17 -7 49 -13 70 -10 38 -10 124 0 142 3 6 7 2 9 -7 2 -10 7 -18 12 -18z
m-374 -42 c4 -6 0 -16 -9 -23 -21 -15 -22 -26 -2 -19 9 4 17 -1 21 -12 3 -11
10 -27 15 -37 8 -14 6 -24 -6 -37 -15 -17 -15 -18 2 -16 14 1 18 -5 16 -26 -1
-16 3 -28 8 -28 6 0 9 -8 8 -17 -1 -10 1 -25 4 -33 4 -8 8 -31 10 -50 2 -20 6
-40 9 -45 3 -6 9 -29 13 -52 8 -51 -6 -57 -38 -16 -22 27 -27 62 -15 101 7 21
0 27 -24 23 -11 -1 -10 7 2 30 8 14 8 19 -1 17 -7 -2 -17 18 -25 45 -11 44
-11 47 4 35 12 -10 11 -5 -4 20 -19 33 -19 34 0 48 20 14 20 14 0 14 -15 0
-23 10 -30 40 -8 28 -8 41 0 44 20 8 35 6 42 -6z m-366 -59 c0 -10 4 -20 9
-23 9 -6 -8 -101 -23 -124 -3 -6 -1 -20 6 -32 10 -16 10 -24 1 -40 -8 -11 -9
-21 -3 -25 12 -7 10 -74 -2 -97 -6 -12 -5 -18 2 -18 7 0 8 -5 3 -12 -4 -7 -6
-21 -4 -32 1 -10 -3 -23 -11 -27 -10 -7 -10 -9 0 -9 7 0 12 -15 12 -39 0 -22
5 -43 10 -46 16 -10 12 -28 -5 -21 -8 3 -15 1 -15 -4 0 -13 40 -24 79 -21 l34
3 -7 -40 c-4 -30 -2 -41 9 -46 8 -3 16 -18 16 -33 1 -17 3 -21 6 -10 6 24 23
11 23 -19 0 -13 5 -24 10 -24 21 0 9 -30 -12 -32 -13 0 -28 -2 -34 -2 -6 -1
-19 -9 -28 -19 -21 -20 -18 -20 -47 -4 -50 26 -79 50 -73 58 7 12 -36 59 -54
59 -7 0 -15 14 -18 30 -4 17 -10 30 -15 30 -5 0 -9 5 -9 10 0 6 6 10 14 10 11
0 12 5 3 23 -11 23 -12 24 -31 5 -11 -10 -28 -18 -38 -18 -11 0 -16 -5 -13
-10 4 -6 11 -8 16 -5 5 4 9 1 9 -4 0 -6 -7 -11 -15 -11 -18 0 -38 -37 -28 -53
4 -6 -5 -4 -21 6 -27 18 -28 18 -42 0 -12 -16 -13 -16 -14 -1 0 9 6 19 13 21
9 4 8 8 -3 16 -13 10 -13 13 3 22 9 6 15 14 12 20 -4 5 1 9 10 9 9 0 13 5 10
10 -3 6 -18 10 -33 10 -23 1 -25 2 -9 11 14 8 15 14 6 32 -9 18 -9 20 2 10 17
-17 53 -17 43 -1 -5 8 0 9 14 6 14 -4 20 -2 16 4 -4 6 3 18 16 28 20 15 21 18
5 24 -12 4 -18 0 -22 -14 -3 -10 -14 -22 -25 -26 -29 -9 -90 5 -82 18 5 8 1 9
-10 5 -10 -4 -22 -7 -27 -7 -4 0 -6 -7 -3 -15 9 -22 -4 -18 -37 10 -29 23 -29
24 -9 35 23 12 28 42 5 34 -9 -4 -15 0 -15 9 0 8 7 18 16 21 8 3 13 10 10 15
-7 11 20 79 40 99 8 8 12 22 9 32 -3 10 -1 21 5 25 5 3 10 17 10 29 0 13 6 29
14 35 8 6 19 25 26 40 13 31 56 47 78 29 10 -9 10 -14 -1 -27 -8 -9 -12 -22
-10 -28 3 -7 0 -13 -5 -13 -6 0 -13 6 -15 13 -4 7 -6 6 -6 -4 -1 -19 23 -42
32 -32 4 3 7 1 7 -5 0 -6 -5 -14 -10 -17 -8 -5 -7 -11 1 -21 18 -22 26 -17 33
20 4 19 14 37 22 40 22 9 24 8 24 -11 0 -9 3 -14 6 -10 12 12 -8 47 -27 47
-35 0 -19 16 17 17 39 1 59 20 43 39 -6 8 -2 14 13 19 13 4 26 7 31 6 4 -1 7
6 7 14 0 8 -4 15 -10 15 -17 0 -11 18 12 40 21 20 23 20 35 4 7 -10 13 -26 13
-35z m1457 -278 c3 -12 11 -17 19 -14 8 3 14 -1 14 -8 0 -8 7 -27 15 -43 17
-31 23 -57 24 -94 1 -15 5 -21 13 -16 7 4 8 3 4 -4 -4 -6 1 -34 10 -63 12 -36
14 -53 6 -58 -6 -4 -7 -12 -3 -20 11 -17 -20 -73 -36 -66 -7 2 -13 -2 -13 -10
0 -8 -6 -12 -14 -9 -8 3 -12 13 -9 25 4 12 -1 25 -12 33 -10 7 -15 18 -11 24
3 6 1 16 -6 24 -8 8 -12 36 -11 70 1 32 -2 60 -7 63 -5 3 -6 17 -4 31 3 17 -1
30 -12 39 -16 12 -16 14 11 39 25 23 26 26 8 26 -26 0 -32 7 -26 31 7 25 33
25 40 0z m-1073 -593 c12 -45 7 -78 -11 -79 -17 -1 -17 -2 -1 -6 13 -3 16 -11
12 -32 -4 -20 -1 -30 9 -34 17 -7 16 -55 -3 -117 -15 -53 -13 -69 10 -65 11 2
23 -1 26 -7 6 -9 11 -99 14 -230 1 -16 5 -28 9 -28 15 0 20 -40 5 -48 -11 -6
-11 -15 1 -60 13 -50 12 -54 -6 -65 -19 -12 -27 -67 -10 -67 14 0 23 -35 16
-63 -5 -19 -12 -24 -28 -21 -12 2 -16 2 -9 -2 6 -3 12 -21 12 -40 0 -21 -4
-33 -10 -29 -5 3 -7 0 -4 -9 3 -8 12 -12 20 -9 8 3 14 0 14 -6 0 -6 -7 -11
-15 -11 -8 0 -15 -4 -15 -10 0 -5 -7 -10 -15 -10 -18 0 -19 12 -4 27 9 9 5 18
-15 36 -29 27 -34 42 -11 33 9 -3 15 0 15 10 0 8 -7 17 -16 21 -11 4 -12 8 -4
13 9 6 8 14 -5 33 -9 15 -14 31 -10 37 4 6 4 19 0 28 -17 39 -29 202 -15 202
16 0 12 30 -5 36 -17 7 -21 25 -4 22 6 -2 14 3 16 10 3 7 -3 12 -14 12 -13 0
-15 2 -5 9 9 5 11 17 6 36 -5 22 -2 31 17 46 22 17 23 19 4 19 -11 0 -33 7
-49 15 -37 20 -52 19 -35 -2 12 -15 12 -16 -3 -10 -9 3 -19 1 -22 -6 -3 -7 -3
2 0 20 3 17 1 41 -5 52 -16 29 5 71 36 71 13 0 22 4 18 9 -3 5 4 16 15 24 17
12 19 19 11 40 -6 15 -10 39 -10 54 1 15 -2 47 -6 70 -7 37 -4 45 21 72 35 36
50 38 58 9z m-243 -19 c11 -5 17 -14 14 -18 -8 -14 32 -20 45 -7 13 13 33 -11
25 -31 -2 -7 5 -15 16 -18 17 -6 18 -9 7 -22 -31 -38 -129 -57 -145 -29 -4 8
-17 14 -27 13 -31 -3 -29 21 2 28 27 6 29 9 27 50 -2 47 3 52 36 34z m1869
-2399 c29 0 130 -100 159 -159 28 -55 28 -57 14 -114 -8 -32 -12 -64 -9 -72 6
-17 36 -21 36 -5 0 6 5 10 12 10 6 0 4 -7 -5 -18 -16 -18 -15 -20 22 -50 22
-18 45 -32 50 -32 6 0 11 -9 11 -21 0 -12 8 -23 19 -26 17 -4 37 -31 29 -38
-12 -10 -48 -14 -48 -6 0 6 -9 11 -19 11 -11 0 -23 4 -26 10 -3 6 1 7 12 4 13
-4 13 -2 -3 8 -49 31 -84 68 -84 90 0 13 -4 19 -8 13 -4 -5 -13 -10 -21 -10
-8 0 -15 -8 -17 -18 -2 -13 2 -17 12 -13 25 10 15 -12 -17 -34 -20 -15 -39
-21 -57 -17 -22 4 -29 1 -39 -19 -6 -14 -10 -33 -7 -42 3 -9 -2 -6 -10 8 -8
14 -15 40 -16 58 0 24 -5 35 -18 39 -20 5 -21 32 -22 332 0 118 4 141 23 122
6 -6 18 -11 27 -11z"/>
<path d="M5613 11173 c-7 -3 -13 -10 -13 -17 0 -25 -32 -76 -47 -76 -9 0 -13
-6 -9 -15 3 -9 -1 -18 -9 -21 -21 -9 -8 -24 20 -24 13 0 30 -3 39 -6 23 -9 20
-45 -3 -51 -13 -3 -18 -10 -14 -21 4 -10 2 -13 -5 -8 -6 3 -16 -3 -22 -14 -6
-11 -8 -20 -4 -20 3 0 1 -7 -6 -15 -28 -34 -81 -4 -60 34 15 30 -5 27 -36 -4
-23 -23 -31 -67 -11 -65 5 1 18 -12 30 -27 12 -15 28 -33 37 -40 13 -11 12
-12 -7 -13 -16 0 -23 6 -23 19 0 20 -25 35 -41 25 -5 -3 -9 -25 -9 -50 0 -25
4 -43 9 -39 5 3 19 -8 30 -24 16 -22 18 -31 9 -37 -8 -5 -3 -12 17 -20 17 -7
23 -13 15 -14 -9 0 -22 -16 -29 -36 -9 -24 -17 -34 -27 -30 -18 7 -31 -21 -17
-35 15 -15 89 25 96 51 6 23 37 28 37 5 0 -20 18 -19 69 6 28 13 41 25 37 34
-3 8 -1 17 4 20 5 3 7 12 4 19 -6 17 26 30 39 17 7 -7 5 -12 -6 -17 -9 -3 -14
-11 -10 -17 3 -6 1 -7 -5 -3 -7 4 -12 1 -12 -8 0 -12 5 -13 31 -4 21 7 27 13
18 18 -7 5 3 8 23 8 44 0 75 16 83 42 3 11 13 20 21 20 22 0 16 17 -8 24 -13
4 -39 8 -59 10 -29 2 -36 -1 -31 -12 3 -10 0 -13 -9 -10 -8 2 -15 14 -17 26
-3 18 -10 22 -43 22 -34 0 -41 4 -50 28 -8 20 -13 23 -18 12 -8 -21 -31 -24
-31 -4 0 9 9 18 19 21 25 6 46 62 27 69 -15 6 -14 55 3 98 10 24 9 32 -5 47
-22 24 -9 42 26 34 24 -5 28 -3 33 21 8 42 -40 81 -80 67z"/>
<path d="M4888 11093 c-19 -5 -24 -18 -9 -27 5 -4 12 0 14 6 4 8 6 7 6 -4 1
-9 7 -18 14 -21 6 -2 8 -8 4 -13 -4 -4 -20 0 -36 9 -28 16 -29 16 -34 -3 -3
-12 -14 -20 -27 -20 -19 0 -20 -2 -10 -15 13 -16 14 -16 -43 -20 -37 -3 -49
-16 -45 -51 2 -21 12 -33 35 -44 35 -16 43 -30 18 -30 -9 0 -18 -6 -21 -14 -3
-8 -12 -12 -20 -9 -16 6 -20 -22 -4 -32 6 -3 10 -15 10 -26 0 -10 5 -19 10
-19 6 0 10 -4 10 -10 0 -5 -7 -10 -15 -10 -18 0 -20 -39 -2 -41 6 -1 31 -1 55
1 25 1 42 -3 42 -9 0 -6 -4 -11 -10 -11 -16 0 -12 -18 10 -40 11 -11 31 -20
44 -20 24 0 41 23 30 41 -3 5 0 9 6 9 7 0 9 27 6 83 -2 45 0 87 5 94 7 7 6 14
-1 18 -5 3 -10 12 -10 20 0 8 -5 26 -12 42 -20 51 -19 63 7 73 14 5 25 13 26
17 0 5 2 23 5 42 3 25 1 32 -10 28 -7 -3 -17 -2 -22 2 -5 4 -17 6 -26 4z"/>
<path d="M6945 11045 c-43 -20 -46 -24 -23 -24 15 -1 29 -5 32 -10 10 -16 -5
-18 -40 -6 -35 12 -84 2 -84 -17 0 -8 116 -128 145 -148 31 -23 71 -90 85
-142 7 -26 19 -49 27 -52 12 -5 12 -8 -2 -23 -16 -15 -19 -15 -45 1 -27 16
-30 16 -38 -1 -5 -10 -7 -23 -5 -30 2 -6 -6 -18 -19 -27 l-23 -16 23 -6 c12
-4 22 -13 22 -20 0 -8 9 -14 20 -14 13 0 18 5 14 15 -7 18 5 19 28 2 9 -7 16
-22 15 -33 -2 -15 4 -19 33 -19 42 0 60 -10 60 -33 0 -9 9 -35 20 -57 l20 -40
-3 38 c-3 35 7 51 15 25 2 -6 10 -8 16 -4 9 5 9 13 1 27 -7 15 -7 24 1 34 8
10 8 15 -4 22 -8 4 -15 11 -16 15 -2 22 -15 53 -35 88 -17 29 -4 50 29 50 22
0 128 -25 156 -37 8 -3 19 -5 24 -4 4 1 23 -10 41 -24 19 -14 38 -25 43 -25 5
0 28 -13 50 -30 49 -35 49 -35 49 -14 0 9 -11 23 -24 31 -12 8 -23 20 -23 27
0 19 -111 91 -220 142 -41 19 -83 40 -92 45 -29 15 -76 11 -87 -8 -10 -17 -12
-16 -30 6 -10 14 -17 31 -14 38 3 7 -2 13 -11 13 -18 0 -22 15 -6 25 17 11 11
33 -17 63 -51 53 -73 82 -73 96 0 7 -7 19 -15 26 -19 16 -3 40 26 40 11 0 19
5 19 10 0 14 -7 12 -65 -15z"/>
<path d="M3928 11014 c-4 -3 -22 -6 -40 -6 l-34 0 -3 -74 c-1 -61 1 -73 13
-68 7 3 17 0 21 -6 4 -7 -2 -14 -14 -17 -19 -5 -21 -13 -21 -75 0 -55 3 -69
14 -65 7 3 36 16 64 29 l50 23 0 128 c0 70 -4 127 -9 127 -4 0 -14 2 -21 5 -8
3 -17 3 -20 -1z"/>
<path d="M6077 11000 c-3 -11 -1 -23 4 -26 5 -3 9 -14 9 -25 0 -20 -1 -20 -37
2 -21 13 -43 30 -49 38 -6 8 -15 11 -21 8 -14 -9 -9 -47 8 -58 12 -7 11 -9 -3
-9 -9 0 -18 5 -20 12 -3 7 -12 9 -23 4 -14 -5 -16 -9 -7 -18 7 -7 12 -22 12
-34 0 -16 6 -22 19 -21 15 1 17 4 9 14 -8 10 -6 13 5 13 8 0 18 -6 20 -12 4
-10 8 -10 15 1 5 7 21 15 35 16 20 2 25 -1 25 -21 0 -13 -5 -21 -10 -18 -13 9
-39 -17 -55 -53 -7 -18 -17 -33 -22 -33 -5 0 -11 -11 -13 -25 -3 -14 -1 -25 3
-25 5 0 9 5 9 10 0 6 7 10 16 10 24 0 158 60 166 75 5 7 17 11 28 8 14 -4 20
0 20 12 0 13 3 15 13 6 16 -13 27 -5 27 21 0 10 5 18 11 18 5 0 7 -4 4 -10 -3
-5 1 -10 9 -10 23 0 19 19 -6 29 l-22 8 24 6 c16 4 21 11 16 23 -3 9 -1 23 5
30 9 11 6 14 -15 14 -15 0 -29 -7 -32 -15 -5 -11 -11 -12 -24 -5 -24 13 -40
13 -40 0 0 -5 11 -12 25 -16 34 -8 31 -20 -8 -33 -27 -9 -40 -8 -68 6 l-34 18
38 3 c40 3 49 17 17 27 -11 4 -18 10 -15 15 11 18 -8 40 -35 40 -19 0 -29 -6
-33 -20z"/>
<path d="M10551 10996 c-7 -9 -22 -16 -32 -16 -27 0 -24 -18 4 -23 19 -4 19
-4 -5 -6 -14 0 -28 4 -30 11 -3 9 -16 8 -49 -5 -24 -9 -63 -19 -87 -23 -23 -4
-45 -11 -48 -15 -3 -5 -18 -9 -33 -9 -16 0 -34 -6 -40 -14 -6 -7 -31 -14 -56
-14 -25 -1 -55 -7 -67 -13 -21 -11 -62 -23 -118 -35 -32 -6 -115 -32 -160 -49
-19 -7 -62 -21 -95 -30 -33 -10 -65 -24 -72 -32 -7 -9 -19 -13 -28 -9 -23 9
-137 -25 -156 -46 -9 -10 -28 -18 -42 -18 -19 0 -28 -6 -32 -23 -9 -32 0 -751
9 -765 4 -7 11 -12 15 -12 13 0 20 37 9 48 -13 13 -2 32 18 32 11 0 13 6 8 23
-9 25 -8 40 2 80 4 18 2 33 -8 45 -24 27 -28 62 -13 99 8 18 12 40 9 47 -6 16
21 46 41 46 10 0 14 22 17 85 3 81 2 85 -17 79 -16 -4 -15 -1 8 20 15 14 27
29 27 35 0 5 6 11 13 14 8 3 6 11 -8 27 -14 16 -16 24 -7 27 15 6 16 85 1 100
-14 14 37 43 76 43 25 0 26 -2 19 -37 -12 -60 -12 -77 -1 -90 6 -9 5 -20 -5
-35 -14 -21 -13 -25 8 -47 13 -14 21 -28 18 -33 -3 -4 -1 -8 5 -8 5 0 12 6 14
13 4 9 6 9 6 -1 1 -7 6 -10 11 -7 15 9 40 -14 40 -36 0 -11 5 -19 10 -19 6 0
10 7 10 15 0 8 4 15 9 15 5 0 11 -7 15 -15 3 -8 15 -15 26 -15 11 0 20 -7 20
-15 0 -8 7 -15 15 -15 21 0 19 -28 -2 -33 -28 -8 -64 -2 -73 13 -11 18 -75 8
-139 -20 -39 -18 -50 -29 -56 -54 -10 -46 -7 -129 6 -137 8 -4 8 -8 1 -13 -6
-4 -9 -13 -5 -21 3 -9 0 -22 -7 -30 -6 -8 -9 -19 -6 -24 4 -5 2 -12 -4 -16
-11 -7 -14 -85 -2 -85 4 0 7 -15 8 -33 1 -17 12 -54 25 -82 29 -61 61 -76 108
-52 20 10 44 14 62 10 18 -3 29 -1 29 6 0 6 -10 11 -22 12 -13 0 -17 3 -10 6
6 2 12 13 12 23 0 23 26 39 51 33 11 -3 19 0 19 6 0 6 -8 11 -17 11 -31 0 -5
11 44 19 42 6 48 10 46 29 -2 16 6 26 30 38 17 9 35 22 39 28 14 21 87 6 121
-26 30 -28 120 -78 140 -78 6 0 25 -11 43 -25 43 -33 54 -32 18 2 -34 32 -103
75 -164 104 -25 12 -47 25 -50 29 -9 12 -83 47 -117 55 -29 6 -32 9 -23 26 6
10 20 19 30 19 11 0 20 5 20 10 0 6 8 10 18 10 20 -1 52 -23 52 -37 0 -12 39
-25 52 -17 12 8 10 19 -11 43 -11 13 -25 19 -35 15 -11 -4 -16 0 -17 12 -1 27
-7 55 -13 61 -8 8 -27 -8 -21 -18 4 -5 1 -9 -4 -9 -6 0 -12 17 -12 38 l-2 37
-6 -40 c-6 -39 -7 -39 -14 -12 -4 15 -5 32 -2 36 2 5 -2 14 -10 21 -7 6 -11
18 -8 26 3 8 -1 14 -11 14 -9 0 -16 -8 -17 -17 0 -11 -3 -13 -6 -5 -2 6 -12
12 -22 12 -32 0 -48 22 -40 55 3 17 7 22 8 12 2 -27 21 -10 21 19 0 19 5 24
24 24 13 0 26 -7 30 -15 3 -8 11 -15 17 -15 6 0 19 -8 28 -18 18 -19 105 -29
124 -13 7 5 31 14 54 20 24 7 42 15 40 19 -1 4 1 8 6 9 4 2 21 10 37 18 32 17
55 12 46 -10 -3 -8 2 -11 15 -8 10 3 19 1 19 -4 0 -12 -60 -56 -67 -49 -9 9
-33 -21 -33 -42 0 -25 -27 -37 -33 -14 -4 16 -5 15 -6 0 0 -10 -8 -18 -16 -18
-8 0 -15 -7 -15 -15 0 -11 -9 -14 -35 -10 -33 4 -49 -9 -22 -18 7 -2 -1 -11
-18 -20 -17 -9 -23 -16 -14 -17 8 0 25 -13 37 -30 28 -37 77 -63 102 -55 14 4
20 2 20 -9 0 -8 9 -18 20 -21 11 -3 20 -11 20 -16 0 -5 6 -9 14 -9 14 0 26
-27 30 -67 1 -12 11 -32 23 -45 33 -37 75 -125 69 -146 -4 -12 4 -27 25 -48
17 -16 40 -48 50 -72 15 -35 22 -42 41 -38 13 3 43 7 67 11 43 6 109 44 145
84 20 22 20 22 -2 28 -20 5 -21 9 -15 62 4 31 7 76 7 101 1 25 4 48 9 51 10 7
-19 279 -30 279 -9 0 -33 -29 -33 -39 0 -6 -4 -11 -10 -11 -5 0 -10 -9 -10
-20 0 -11 -5 -20 -11 -20 -6 0 -9 8 -7 18 2 9 -8 28 -22 42 -30 30 -35 41 -22
49 14 9 -9 111 -24 111 -7 0 -20 18 -30 40 -10 22 -20 40 -24 40 -3 0 -21 -8
-40 -18 -43 -23 -100 -35 -100 -22 0 6 -6 10 -14 10 -39 0 -14 80 33 104 16 9
35 16 41 16 6 0 20 9 31 19 19 18 19 19 2 18 -27 -3 -30 39 -4 48 12 3 21 14
21 23 0 21 37 55 45 42 4 -6 2 -10 -3 -10 -16 0 -24 -32 -11 -44 8 -8 13 -7
16 2 4 10 10 9 27 -6 11 -11 40 -25 64 -31 29 -8 42 -17 42 -29 0 -33 24 -50
78 -54 l52 -5 0 218 c0 181 -2 219 -14 219 -8 0 -16 -7 -20 -15 -3 -8 -15 -15
-26 -15 -15 0 -20 7 -20 29 0 16 6 31 13 34 25 9 -1 17 -74 23 -62 5 -77 4
-88 -10z"/>
<path d="M6580 10886 c14 -18 10 -58 -7 -63 -7 -3 -15 7 -19 21 -13 52 -19 24
-17 -80 1 -76 -2 -104 -10 -101 -7 2 -15 23 -19 48 -11 62 -27 91 -50 83 -23
-7 -24 14 0 33 16 13 16 14 -3 11 -21 -3 -31 -29 -21 -55 5 -11 10 -13 20 -4
14 12 26 5 26 -16 0 -7 -11 -13 -26 -13 -25 0 -26 -2 -21 -37 4 -20 12 -40 19
-44 20 -12 21 -578 2 -586 -17 -6 -18 -45 -3 -60 6 -6 13 -26 15 -44 2 -19 5
-39 6 -45 2 -16 38 -5 38 11 0 19 20 23 52 11 37 -14 49 2 18 23 -70 46 -73
54 -66 159 14 187 16 228 18 336 1 60 5 100 9 90 7 -17 8 -17 8 -1 1 9 7 27
14 38 10 17 10 23 0 26 -7 3 -13 11 -13 19 0 9 5 12 12 8 6 -4 8 -3 5 4 -10
14 24 70 45 76 22 5 24 26 3 26 -17 0 -19 30 -6 78 12 41 5 62 -21 62 -17 0
-18 -3 -8 -14z"/>
<path d="M5203 10775 l6 -36 -35 21 -34 22 -2 -24 c-4 -60 21 -93 70 -93 18 0
27 -9 37 -38 16 -47 18 -49 39 -41 21 8 22 62 1 70 -22 9 -18 19 10 32 18 9
24 17 21 34 -3 13 -5 32 -5 44 -1 24 -38 44 -83 44 -30 0 -30 -1 -25 -35z"/>
<path d="M6054 10665 c3 -8 -2 -13 -12 -12 -9 0 -39 -8 -65 -18 -46 -17 -48
-20 -42 -49 8 -36 34 -110 52 -146 10 -19 10 -26 0 -32 -12 -7 -10 -9 14 -12
5 0 18 -12 28 -24 12 -16 25 -23 42 -20 l24 3 -22 19 c-18 16 -19 22 -10 39 9
15 9 21 0 24 -7 3 -13 11 -13 18 0 8 -11 26 -25 41 -31 33 -32 48 -3 41 27 -8
49 9 41 30 -5 13 -2 15 11 10 10 -4 19 -7 22 -7 2 0 10 -13 19 -30 17 -32 35
-40 35 -15 0 8 7 15 15 15 18 0 19 12 4 27 -6 6 -14 26 -18 45 -6 26 -12 33
-29 32 -12 0 -22 3 -22 8 0 4 5 8 10 8 6 0 10 4 10 9 0 5 -16 9 -36 9 -25 0
-34 -4 -30 -13z"/>
<path d="M5810 10579 c0 -9 -90 -40 -100 -34 -4 3 -13 -2 -20 -10 -8 -9 -22
-12 -41 -8 -25 5 -28 3 -23 -11 4 -10 -1 -25 -11 -36 -20 -22 -14 -50 11 -50
14 0 16 -7 11 -37 -7 -44 -27 -66 -50 -57 -21 8 -22 28 -2 44 24 20 1 52 -32
44 -23 -6 -25 -4 -21 14 4 15 0 23 -14 28 -11 3 -22 3 -25 0 -4 -3 0 -6 8 -6
9 0 7 -5 -6 -12 -20 -12 -25 -14 -58 -16 -16 -2 -17 -21 -15 -254 1 -220 2
-245 12 -188 9 55 15 67 37 77 15 7 30 25 34 40 3 15 17 45 31 68 22 38 30 43
70 49 25 3 50 4 54 1 4 -3 11 2 14 11 4 11 12 14 24 9 9 -4 27 -7 40 -6 12 0
22 -5 22 -12 0 -8 12 -24 26 -38 l27 -24 -6 25 c-11 45 -43 165 -49 180 -14
36 -28 84 -28 98 0 10 7 12 28 7 15 -3 29 -11 30 -16 7 -19 80 -9 108 14 26
23 26 24 10 55 -9 17 -16 38 -16 46 0 11 -10 15 -40 13 -22 -1 -40 -4 -40 -8z"/>
<path d="M8813 10493 c-7 -2 -13 -11 -13 -18 0 -11 -6 -11 -30 -2 -23 9 -36 8
-62 -5 -19 -9 -66 -24 -106 -33 -40 -10 -72 -22 -72 -26 0 -12 27 -12 34 0 7
10 66 20 66 11 0 -13 -122 -41 -134 -31 -13 11 -106 -7 -141 -27 -18 -10 -16
-11 15 -12 19 0 48 7 64 15 34 18 66 21 49 4 -6 -6 -19 -12 -29 -13 -10 -2
-26 -14 -36 -27 -16 -23 -16 -27 1 -88 9 -35 26 -70 37 -78 10 -8 19 -18 19
-24 0 -5 27 -22 60 -36 76 -34 74 -31 46 -54 -22 -18 -22 -19 -3 -19 40 0 51
-10 45 -41 -5 -25 -2 -29 15 -29 26 0 39 -19 21 -31 -11 -8 -10 -12 5 -24 16
-12 17 -19 9 -38 -7 -16 -8 -29 -1 -41 5 -10 8 -27 5 -38 -3 -11 -2 -31 3 -43
6 -17 5 -27 -6 -35 -7 -7 -14 -9 -14 -4 -1 5 -7 -2 -14 -16 -8 -14 -12 -28
-10 -32 5 -8 -26 -12 -54 -9 -7 1 -15 -12 -18 -29 -4 -17 -11 -33 -15 -36 -19
-11 -8 -34 16 -34 53 0 99 34 130 97 30 62 158 148 203 137 16 -5 22 1 32 33
7 21 19 47 26 58 24 38 21 64 -10 88 -28 22 -28 24 -15 60 7 20 16 37 19 37 4
0 4 28 2 62 -5 70 -32 111 -75 111 -19 0 -27 6 -32 25 -4 18 -9 22 -14 13 -6
-10 -10 -9 -15 4 -3 10 -2 23 4 30 5 6 8 14 5 17 -3 3 4 33 15 67 22 69 20 82
-10 74 -27 -7 -25 11 3 25 22 11 4 15 -20 5z"/>
<path d="M5287 10369 c-10 -6 -29 -8 -43 -5 -15 4 -23 2 -22 -5 3 -11 -88 -52
-100 -45 -10 6 -15 -106 -11 -271 0 -23 -2 -51 -6 -62 -8 -25 16 -29 35 -6 7
8 26 15 42 15 23 0 29 4 24 16 -3 9 -6 24 -6 34 0 13 -9 20 -27 22 -35 4 -43
28 -9 28 15 0 30 -8 36 -20 14 -26 50 -27 50 -1 0 12 7 18 18 17 9 0 16 5 15
12 -2 6 4 12 12 12 22 0 18 -17 -6 -30 -16 -9 -19 -17 -14 -41 5 -22 3 -29 -9
-29 -21 0 -20 -14 1 -36 17 -16 18 -16 24 14 3 17 15 48 25 69 16 32 19 61 19
178 0 148 -4 160 -48 134z"/>
<path d="M4840 10203 c-14 -2 -30 -11 -36 -19 -7 -8 -16 -14 -20 -12 -5 1 -22
-1 -39 -5 l-30 -8 -3 -117 c-2 -66 -8 -119 -14 -123 -7 -4 -7 -9 1 -13 6 -4
11 -29 11 -55 0 -27 3 -62 6 -79 6 -27 9 -30 26 -21 10 6 29 10 41 9 40 -4 47
0 57 25 5 14 14 25 19 25 19 0 30 99 29 248 0 105 -4 152 -12 151 -6 -1 -22
-4 -36 -6z"/>
<path d="M6713 9870 c-1 -11 4 -20 10 -21 7 0 30 -10 53 -22 107 -57 149 -77
164 -77 8 0 26 -8 40 -17 25 -18 83 -24 237 -27 46 0 83 -3 83 -6 0 -3 18 -4
39 -2 21 2 54 -3 72 -11 19 -8 62 -26 97 -39 34 -12 62 -26 62 -30 0 -5 6 -8
13 -8 18 0 10 57 -9 64 -8 3 -14 1 -14 -4 0 -6 -8 -10 -17 -10 -15 0 -16 2 -3
10 13 8 13 11 0 23 -19 17 -94 47 -119 47 -11 0 -21 6 -24 13 -5 17 -303 15
-337 -3 -20 -11 -25 -10 -37 6 -7 10 -36 24 -64 31 -51 13 -149 58 -159 72 -5
7 -66 31 -79 31 -4 0 -7 -9 -8 -20z"/>
<path d="M5649 9823 c-1 -5 0 -18 1 -31 3 -35 -20 -91 -41 -103 -17 -8 -24 -6
-40 12 -10 12 -19 26 -19 32 0 5 -6 5 -13 -2 -10 -8 -17 -7 -26 2 -10 9 -15 8
-25 -5 -7 -10 -19 -18 -26 -18 -8 0 -4 -8 8 -19 29 -25 30 -46 1 -30 -26 14
-53 -8 -43 -34 7 -19 25 -22 52 -8 28 14 114 39 160 46 23 4 42 11 42 17 0 6
-7 8 -15 4 -22 -8 -20 39 3 62 14 14 16 24 8 50 -8 29 -24 44 -27 25z"/>
<path d="M6465 9507 c3 -166 7 -319 9 -340 3 -30 1 -36 -9 -27 -7 6 -15 7 -17
3 -3 -4 -6 -63 -7 -130 -2 -122 -2 -123 21 -123 41 1 120 26 132 42 14 19 67
35 136 41 61 6 90 15 90 28 0 5 8 9 19 9 22 0 73 38 66 50 -3 4 5 11 18 15 19
6 19 8 4 12 -9 2 -33 -1 -51 -7 -19 -6 -71 -13 -115 -16 -102 -6 -129 -16
-143 -54 -9 -27 -12 -29 -22 -15 -6 9 -17 15 -23 13 -6 -2 -32 19 -58 46 -42
44 -45 50 -31 64 14 14 16 13 25 -11 15 -39 31 -34 21 6 -9 34 -18 218 -25
502 -2 94 -4 175 -4 180 -1 6 -10 11 -21 12 -20 2 -21 -1 -15 -300z"/>
<path d="M5116 9703 c-16 -8 -25 -18 -20 -22 5 -3 15 -14 23 -24 12 -15 11
-21 -10 -43 -22 -24 -32 -84 -16 -100 4 -4 26 -1 49 6 24 7 57 16 73 21 124
35 120 32 120 78 l0 43 -70 4 c-46 3 -73 10 -78 19 -15 28 -41 34 -71 18z"/>
<path d="M9473 9663 c18 -5 24 -23 7 -23 -5 0 -7 -6 -4 -14 3 -8 12 -12 20 -9
15 5 44 -19 44 -37 0 -7 10 -21 23 -32 12 -11 16 -17 10 -13 -8 4 -13 0 -13
-9 0 -9 12 -19 26 -22 18 -5 22 -10 15 -17 -13 -13 -15 -30 -2 -23 5 4 35 7
68 7 59 2 118 18 96 26 -7 3 -13 12 -13 21 0 28 -66 92 -94 92 -14 0 -28 5
-31 10 -3 6 -14 10 -24 10 -21 0 -71 22 -71 33 0 4 -17 6 -37 6 -21 -1 -30 -3
-20 -6z"/>
<path d="M5569 9555 c-3 -2 -18 -7 -34 -10 -17 -3 -46 -9 -65 -13 l-35 -8 -3
-67 c-2 -37 1 -66 5 -65 9 2 88 -11 117 -19 12 -3 16 -1 12 6 -4 6 0 11 8 11
9 0 16 -4 16 -10 0 -5 7 -10 15 -10 8 0 15 5 15 10 0 6 13 10 30 10 24 0 31 5
36 26 4 14 1 36 -6 49 -15 28 -7 57 14 49 8 -3 17 -1 21 5 6 11 -12 15 -48 11
-10 -1 -24 3 -30 8 -14 11 -62 23 -68 17z"/>
<path d="M5261 9461 c-13 -13 -38 -19 -95 -23 -42 -3 -79 -7 -81 -10 -3 -3 -7
-90 -10 -195 -5 -209 -9 -195 58 -217 18 -6 18 2 0 52 -9 22 24 12 41 -13 18
-27 22 -70 6 -60 -7 4 -8 -3 -4 -21 5 -21 4 -26 -7 -22 -8 4 -22 9 -31 13 -11
4 -18 3 -18 -4 0 -6 7 -11 16 -11 11 0 15 -6 11 -20 -3 -11 -1 -23 4 -26 14
-8 11 -24 -6 -24 -8 0 -22 11 -31 25 -15 24 -17 24 -30 8 -10 -15 -10 -21 3
-35 8 -9 25 -18 37 -20 22 -3 27 -34 28 -155 0 -23 5 -44 12 -46 7 -3 11 6 11
22 0 32 34 41 59 16 20 -20 36 -11 35 18 0 12 -3 16 -6 10 -2 -7 -8 -13 -13
-13 -11 0 -19 50 -8 56 5 3 8 16 7 27 -3 46 0 51 19 35 19 -17 42 -13 42 8 0
8 5 14 10 14 22 0 8 17 -25 30 -20 8 -35 21 -35 30 0 26 12 31 36 16 12 -8 24
-12 28 -9 10 10 -25 43 -46 43 -11 0 -18 5 -16 12 3 7 15 13 29 13 21 0 24 4
21 30 -2 17 -10 33 -17 38 -16 9 -3 66 17 78 9 6 7 10 -7 15 -35 13 -48 46
-15 37 11 -3 20 -9 20 -14 0 -5 7 -9 15 -9 13 0 15 24 15 160 l0 160 -30 0
c-16 0 -38 -8 -49 -19z"/>
<path d="M9930 9420 c-30 -4 -102 -19 -160 -33 -58 -15 -127 -28 -153 -30 -58
-5 -75 -17 -24 -17 21 0 37 -4 37 -10 0 -9 -20 -14 -47 -11 -6 1 -14 -3 -18
-9 -6 -9 14 -14 43 -11 18 3 27 -29 14 -50 -15 -23 -15 -56 -2 -64 5 -3 9 -20
8 -38 -1 -44 11 -65 72 -120 43 -39 56 -46 78 -41 38 9 39 11 45 41 3 16 8 38
12 51 6 19 3 24 -14 29 -16 4 -21 11 -18 24 3 11 1 17 -3 14 -5 -3 -14 4 -20
15 -11 21 -9 23 35 33 11 3 3 5 -17 6 -30 1 -38 -3 -38 -16 -1 -16 -2 -16 -16
2 -8 11 -10 21 -5 23 6 2 6 15 0 35 -14 48 -12 52 26 78 19 13 35 32 35 42 0
9 8 17 18 18 37 1 98 9 122 16 14 4 31 7 39 8 8 0 16 6 19 13 2 6 0 11 -5 11
-4 -1 -33 -5 -63 -9z"/>
<path d="M4753 9332 c-28 -13 -31 -19 -35 -76 -3 -33 -5 -137 -4 -231 1 -164
2 -170 21 -168 34 4 74 -8 70 -20 -5 -13 22 -53 30 -45 3 2 6 63 7 135 2 94
-1 134 -10 145 -10 13 -10 17 3 22 13 5 15 19 13 73 -3 58 -6 68 -20 67 -23
-2 -23 11 1 33 10 10 21 33 24 51 7 33 7 33 -32 31 -21 -2 -51 -9 -68 -17z"/>
<path d="M6193 9296 c-4 -7 -26 -19 -48 -25 -22 -7 -49 -16 -60 -21 -11 -5
-35 -14 -52 -22 -18 -7 -33 -16 -33 -19 0 -9 45 -28 130 -56 135 -44 210 -101
181 -137 -13 -17 -9 -45 6 -39 13 5 14 9 15 116 0 52 -3 62 -17 59 -14 -3 -15
3 -9 35 l7 37 -27 -18 c-35 -23 -42 -16 -16 17 22 28 12 44 -22 39 -11 -2 -18
3 -18 12 0 9 6 16 13 17 6 0 3 4 -8 9 -28 12 -33 12 -42 -4z"/>
<path d="M10198 9180 c-44 -14 -127 -72 -135 -94 -8 -23 -8 -27 -19 -74 -5
-27 -4 -31 10 -26 9 3 16 10 16 14 0 21 55 70 107 95 48 24 75 29 156 33 65 3
102 1 110 -7 6 -6 26 -11 44 -11 18 0 41 -4 51 -9 9 -4 40 -20 67 -33 28 -14
54 -35 60 -46 5 -12 13 -22 17 -22 5 0 8 -15 9 -32 0 -30 1 -31 11 -11 6 13
24 24 45 28 l34 6 -55 41 c-49 36 -56 46 -56 75 0 37 -14 43 -30 13 -6 -11
-18 -20 -28 -20 -21 1 -120 33 -158 53 -26 13 -58 18 -189 32 -22 2 -52 0 -67
-5z"/>
<path d="M656 9011 c-14 -15 -16 -39 -16 -171 l0 -45 22 30 c13 16 30 43 39
59 22 42 44 54 69 38 47 -29 40 0 -13 52 -50 50 -80 61 -101 37z"/>
<path d="M9412 8918 c2 -16 11 -24 28 -26 14 -2 39 -10 57 -18 17 -8 40 -14
50 -14 32 0 168 -37 217 -59 25 -12 52 -21 60 -21 8 0 18 -4 21 -10 12 -19 90
-11 116 11 21 19 22 21 4 16 -61 -18 -72 -17 -135 11 -36 17 -101 37 -145 47
-44 9 -91 20 -105 23 -14 2 -36 13 -50 22 -27 19 -85 40 -107 40 -9 0 -13 -8
-11 -22z"/>
<path d="M8960 8862 c0 -11 -6 -25 -14 -31 -8 -7 -13 -27 -12 -46 1 -33 -7
-45 -18 -26 -10 16 -121 18 -140 2 -23 -19 -50 11 -43 48 6 29 5 32 -16 29
-14 -2 -22 -10 -22 -23 0 -23 -40 -59 -54 -50 -6 3 -19 -14 -30 -37 -11 -24
-34 -54 -50 -68 -17 -14 -31 -30 -31 -37 0 -6 -9 -18 -21 -26 -11 -8 -19 -23
-17 -33 4 -25 -36 -44 -94 -44 -39 0 -46 -3 -41 -16 4 -11 13 -14 32 -10 14 3
50 9 79 12 48 6 52 5 52 -14 0 -23 16 -39 22 -22 6 20 74 27 216 24 134 -4
140 -3 135 15 -3 11 3 27 15 39 24 24 41 97 31 134 -4 16 -3 30 2 34 5 3 7 9
4 14 -3 5 -1 11 5 15 5 3 10 0 10 -7 0 -7 7 0 15 16 9 16 13 37 10 48 -4 10
-1 18 5 18 6 0 8 5 3 13 -4 6 -8 18 -8 26 0 22 -25 25 -25 3z"/>
<path d="M7719 8860 c-1 -5 -2 -14 -3 -19 -1 -5 34 -32 77 -61 84 -56 150
-115 370 -327 76 -73 142 -133 147 -133 16 0 22 21 10 35 -7 8 -20 15 -29 15
-9 0 -24 17 -33 38 -25 53 -161 203 -238 262 -75 57 -284 200 -294 200 -3 0
-7 -4 -7 -10z"/>
<path d="M457 8820 c-9 -11 -23 -17 -32 -14 -21 8 -19 -16 2 -31 16 -12 16
-17 2 -61 -14 -44 -18 -189 -5 -201 3 -3 17 1 33 9 l28 13 -2 148 c-1 82 -3
150 -5 153 -2 2 -12 -5 -21 -16z"/>
<path d="M6539 8806 c-3 -3 -69 -14 -91 -16 -5 0 -8 -11 -8 -24 0 -26 35 -74
82 -115 15 -13 28 -32 28 -42 0 -27 23 -14 42 24 9 19 16 61 17 105 l2 72 -34
0 c-18 0 -36 -2 -38 -4z"/>
<path d="M741 8776 c-16 -17 -20 -30 -15 -50 5 -22 3 -25 -11 -20 -14 6 -16 2
-13 -22 2 -23 9 -30 35 -35 24 -5 36 -2 48 11 9 10 31 21 50 24 39 8 40 20 5
79 -27 45 -64 50 -99 13z"/>
<path d="M10706 8791 c-4 -5 -2 -13 4 -16 6 -4 10 -28 10 -53 -2 -64 18 -163
35 -183 17 -18 20 -95 5 -104 -21 -13 -177 -20 -295 -14 -11 1 -50 -3 -87 -8
-37 -5 -69 -6 -70 -1 -5 15 -226 18 -254 3 -14 -7 -22 -15 -17 -18 4 -3 87 -8
183 -12 96 -3 204 -13 240 -21 69 -15 145 -13 223 7 38 10 53 10 68 1 10 -7
21 -12 24 -12 4 0 5 70 4 156 -2 145 -3 158 -25 190 -13 19 -24 46 -24 59 0
26 -15 41 -24 26z"/>
<path d="M280 8614 c0 -77 4 -145 8 -152 7 -9 16 -10 41 -1 l34 12 -6 74 c-3
41 -10 80 -15 86 -5 7 -12 25 -16 41 -4 16 -16 41 -27 54 l-19 25 0 -139z"/>
<path d="M8925 8483 c11 -105 16 -138 26 -149 38 -46 51 -91 50 -169 0 -44 3
-86 8 -94 7 -10 24 -12 74 -7 l65 7 -10 35 c-12 47 -72 161 -91 175 -4 3 -7
10 -6 15 5 16 -13 58 -37 90 -13 17 -20 34 -17 38 4 3 1 6 -5 6 -7 0 -12 15
-12 33 0 34 -15 57 -36 57 -9 0 -12 -12 -9 -37z"/>
<path d="M6164 8434 c-8 -3 -10 -22 -8 -48 3 -30 0 -47 -10 -55 -13 -11 -12
-15 5 -32 19 -19 19 -22 4 -46 -9 -13 -14 -32 -11 -40 4 -10 -2 -21 -14 -30
-22 -16 -27 -49 -8 -55 7 -3 25 0 41 6 24 9 31 8 42 -8 9 -12 20 -16 31 -12
10 4 25 0 35 -10 28 -26 59 -10 59 31 0 27 -4 34 -22 38 l-23 4 23 2 c23 1 24
3 21 99 -1 54 0 103 4 109 10 15 -18 24 -32 10 -6 -6 -11 -24 -11 -39 0 -24
-4 -28 -29 -28 -29 0 -30 2 -33 53 -3 47 -5 52 -28 54 -14 1 -30 0 -36 -3z"/>
<path d="M6446 8412 c-3 -3 -6 -87 -6 -187 l0 -181 30 -22 c37 -28 44 -28 36
1 -16 54 -16 125 0 206 9 47 20 90 25 96 5 5 9 19 9 31 0 12 7 27 15 34 8 7
15 16 15 20 0 9 -116 11 -124 2z"/>
<path d="M7105 8322 c-33 -16 -66 -36 -74 -45 -29 -35 -137 -58 -283 -59 -137
-2 -138 -2 -138 -24 0 -33 31 -45 108 -44 39 1 85 -4 109 -13 25 -9 57 -14 77
-10 23 4 42 0 57 -11 54 -38 100 -16 124 59 21 69 44 85 132 95 64 6 157 -11
179 -33 4 -4 20 -7 35 -7 28 0 48 -9 116 -53 24 -15 47 -27 53 -27 19 0 10 45
-12 59 -60 38 -168 91 -185 91 -10 0 -23 4 -28 9 -17 16 -117 41 -164 41 -30
0 -67 -10 -106 -28z"/>
<path d="M621 8135 c-29 -10 -36 -18 -38 -46 -3 -26 -1 -30 7 -19 8 13 10 12
10 -3 0 -10 -7 -25 -16 -34 -8 -9 -13 -22 -10 -30 3 -8 6 -62 6 -119 0 -104 0
-104 24 -104 14 0 36 4 49 9 21 8 24 15 22 43 -2 18 -4 59 -4 91 -1 44 -4 57
-16 57 -18 0 -18 1 -1 34 7 15 12 45 11 69 -2 23 2 48 7 55 13 15 -4 14 -51
-3z"/>
<path d="M5220 8079 c0 -6 -9 -8 -20 -4 -11 3 -20 2 -20 -3 0 -6 -15 -6 -42
-1 -39 9 -43 8 -78 -26 -20 -19 -39 -33 -42 -29 -4 3 -9 -16 -13 -43 -14 -102
-10 -152 13 -160 9 -4 28 -15 41 -25 26 -20 141 -26 141 -8 0 6 27 10 60 10
56 0 75 10 49 25 -6 4 -8 14 -5 22 3 8 1 24 -5 36 -17 32 -19 88 -2 94 10 4 8
10 -8 24 -12 11 -25 19 -29 19 -14 0 -60 -57 -60 -74 0 -12 -5 -16 -15 -12 -9
3 -15 0 -15 -9 0 -15 -12 -20 -23 -9 -3 4 3 14 13 23 11 9 23 34 28 56 7 35
11 40 32 37 21 -3 22 -2 11 12 -18 22 -5 39 20 26 14 -8 25 -7 39 3 11 8 17
17 13 20 -11 11 -83 8 -83 -4z"/>
<path d="M427 8073 c-9 -8 -9 -133 0 -240 5 -72 8 -83 24 -83 11 0 19 5 19 10
0 6 -5 10 -11 10 -8 0 -8 4 0 14 16 19 17 76 2 86 -9 5 -8 9 5 14 11 4 20 2
22 -3 2 -6 8 -11 14 -11 10 0 6 115 -8 178 -5 26 -11 32 -34 32 -14 0 -30 -3
-33 -7z"/>
<path d="M5753 8040 c9 -35 -34 -54 -91 -42 l-40 9 5 -52 c5 -47 3 -53 -15
-57 -15 -4 -23 0 -28 14 -5 17 -7 17 -17 5 -7 -8 -23 -18 -35 -22 -22 -6 -23
-5 -12 15 6 11 18 24 26 27 23 8 16 23 -10 21 -15 -1 -22 -7 -19 -15 4 -9 -5
-13 -28 -13 -46 0 -56 -9 -61 -50 -2 -28 0 -34 14 -32 26 4 32 -17 6 -27 l-23
-9 28 -7 c15 -4 44 -4 65 0 20 3 61 6 90 5 33 -1 52 3 52 11 0 7 11 9 35 5 34
-7 35 -6 35 23 0 29 -22 61 -41 61 -25 0 -4 29 41 55 44 26 50 33 44 55 -3 14
-10 30 -16 35 -7 7 -9 2 -5 -15z"/>
<path d="M5828 7973 c-10 -2 -18 -13 -18 -23 0 -10 -4 -21 -9 -24 -14 -9 -42
5 -35 16 4 6 -2 8 -12 6 -27 -5 -24 -31 6 -44 l25 -11 -22 -7 c-23 -7 -32 -26
-13 -26 6 0 10 -6 10 -14 0 -24 18 -28 79 -21 l59 7 1 51 c0 29 2 60 3 71 2
14 -4 19 -27 21 -16 1 -38 0 -47 -2z"/>
<path d="M2376 7705 c-4 -14 -13 -25 -21 -25 -8 0 -18 -6 -22 -13 -4 -8 -23
-17 -42 -21 -21 -4 -50 -22 -73 -46 -28 -29 -49 -40 -71 -41 -28 -2 -29 -2 -7
-6 14 -3 28 -10 32 -17 6 -8 12 -8 25 0 13 8 25 8 42 0 19 -8 25 -8 29 2 2 6
13 12 25 12 17 0 19 2 8 9 -17 11 -4 34 16 27 8 -3 11 -2 8 4 -3 5 10 12 29
16 32 5 35 9 30 33 -5 24 -2 27 24 29 19 1 32 -3 36 -13 8 -22 33 -19 46 6 10
18 8 22 -19 32 -17 6 -31 15 -31 19 0 4 -6 5 -14 2 -8 -3 -17 -1 -21 5 -11 18
-22 12 -29 -14z"/>
<path d="M591 7545 c2 -149 6 -165 39 -165 35 0 65 11 53 19 -15 11 -45 79
-49 110 -3 25 0 31 16 31 27 0 44 34 30 60 -13 24 -28 26 -36 5 -9 -22 -22
-18 -39 13 -14 26 -15 22 -14 -73z"/>
<path d="M10320 7350 c0 -6 -64 -9 -162 -8 -90 1 -174 -2 -188 -7 -30 -10
-102 -9 -149 1 -25 5 -32 4 -27 -4 11 -18 -15 -14 -37 5 -18 17 -19 17 -28 0
-12 -21 -31 -23 -23 -2 4 8 1 15 -5 15 -6 0 -11 -7 -11 -15 0 -9 -9 -15 -21
-15 -11 0 -27 7 -35 15 -17 17 -63 19 -229 8 -78 -4 -102 -9 -85 -15 34 -13
18 -20 -28 -12 -23 4 -39 11 -36 16 4 5 -8 8 -27 6 -19 -2 -33 -8 -32 -15 1
-6 -4 -16 -11 -22 -11 -9 -14 -8 -12 6 0 12 -4 16 -14 14 -8 -3 -37 -7 -63 -9
-37 -3 -53 0 -68 14 -16 15 -22 16 -29 5 -6 -11 -23 -12 -68 -7 -37 4 -63 3
-67 -3 -3 -6 -39 -9 -85 -7 -55 2 -85 -1 -99 -10 -11 -8 -28 -11 -42 -7 -25 7
-116 9 -252 4 -47 -1 -84 2 -92 9 -10 8 -15 8 -20 0 -4 -6 -14 -9 -22 -6 -8 3
-11 1 -8 -4 6 -9 2 -12 -27 -14 -7 -1 -17 -5 -21 -11 -6 -6 -10 -6 -13 2 -4
10 -8 10 -19 0 -17 -16 -9 -27 21 -27 36 0 29 -18 -10 -26 -24 -4 -42 -1 -58
10 -12 9 -33 16 -45 16 -14 0 -23 6 -23 15 0 8 -7 15 -16 15 -14 0 -14 -3 -4
-15 16 -19 3 -19 -30 0 -14 8 -47 14 -75 14 -45 -1 -47 -2 -22 -11 17 -6 27
-17 27 -29 0 -19 -2 -19 -22 -5 -29 21 -38 20 -38 -3 0 -17 -4 -18 -32 -9 -18
6 -52 20 -75 31 -43 22 -72 16 -40 -7 9 -7 17 -15 17 -18 0 -8 -50 4 -56 13
-3 5 -18 9 -34 9 -15 0 -53 10 -84 21 -34 13 -62 18 -73 14 -10 -4 -31 -7 -48
-6 -16 0 -46 -3 -65 -8 -35 -9 -35 -9 14 -10 81 -2 48 -8 -72 -15 -68 -4 -111
-3 -108 3 7 11 -22 23 -35 15 -6 -3 -16 0 -24 6 -8 6 -19 9 -25 5 -5 -3 -10
-1 -10 4 0 6 -15 11 -32 11 -30 -1 -31 -2 -15 -14 21 -16 22 -26 1 -26 -10 0
-13 -6 -10 -18 5 -16 2 -18 -23 -14 -16 2 -32 11 -35 19 -4 11 -1 13 14 8 11
-4 20 -2 20 4 0 6 -14 11 -31 11 -17 0 -39 5 -50 10 -15 8 -19 7 -19 -5 0 -8
-9 -15 -20 -15 -11 0 -20 4 -20 9 0 5 -7 12 -16 15 -13 5 -15 2 -11 -14 11
-41 -52 -20 -111 37 -22 21 -37 15 -17 -7 15 -17 16 -24 7 -45 -14 -31 -39
-32 -93 -4 -23 11 -43 19 -45 16 -2 -2 -5 -15 -6 -30 -2 -23 -6 -25 -28 -20
-14 3 -33 10 -42 14 -9 5 -33 9 -53 9 -20 0 -43 7 -51 15 -13 13 -69 22 -99
15 -32 -6 -124 2 -142 13 -6 4 -13 -2 -16 -13 -4 -16 -14 -20 -45 -20 -23 0
-53 -5 -68 -10 -21 -8 -31 -7 -46 6 -14 13 -15 19 -6 25 7 5 -2 8 -22 7 -19
-1 -53 0 -75 1 -33 2 -37 4 -20 12 15 7 11 8 -15 3 -19 -4 -55 -6 -78 -5 l-44
1 33 -34 c17 -19 44 -38 58 -42 l26 -7 -30 -8 c-42 -12 -153 0 -197 22 -21 11
-58 19 -85 19 -26 0 -72 9 -101 20 -52 20 -103 26 -115 14 -9 -10 -87 -11 -87
-2 0 4 -7 8 -15 8 -8 0 -15 -9 -15 -20 0 -24 -9 -26 -25 -4 -14 19 -55 11 -55
-12 0 -20 -13 -18 -27 4 -7 12 -24 19 -43 20 -18 0 -40 8 -49 16 -22 20 -35
20 -27 1 9 -24 -20 -43 -61 -41 -21 1 -43 5 -50 9 -6 4 -15 2 -18 -4 -8 -12
-1 -22 18 -25 79 -16 87 -25 22 -25 -28 0 -61 0 -75 0 -13 -1 -26 4 -28 10 -2
6 -15 11 -28 11 -13 0 -24 6 -24 13 0 8 -3 8 -9 -2 -12 -19 -41 -23 -41 -5 0
8 -8 14 -17 13 -11 0 -13 -3 -5 -6 6 -2 10 -9 7 -14 -4 -5 -18 -1 -33 8 -26
17 -26 17 -13 0 20 -25 -12 -34 -55 -14 -30 15 -35 15 -49 0 -15 -14 -19 -13
-45 14 -21 22 -43 32 -76 37 -26 3 -49 4 -52 2 -7 -8 110 -135 143 -157 59
-38 84 -66 78 -88 -6 -23 33 -75 48 -65 5 3 8 24 8 47 -2 67 -1 75 11 57 6
-10 7 -3 3 24 -4 27 -2 41 8 47 11 7 11 9 1 9 -7 0 -10 5 -7 11 6 9 210 7 220
-3 2 -2 61 0 132 5 70 4 142 5 158 1 17 -3 59 -8 95 -10 48 -3 69 -9 81 -23
15 -18 16 -18 43 1 25 19 44 21 261 22 128 0 227 5 219 9 -21 12 -17 24 12 31
17 5 30 2 38 -7 8 -10 44 -16 121 -21 261 -14 320 -24 340 -56 10 -15 25 -12
19 4 -4 11 7 16 43 22 48 8 586 9 958 2 285 -5 289 -8 287 -205 -2 -115 0
-123 18 -123 10 0 34 -9 53 -20 30 -18 54 -23 152 -32 25 -2 101 -79 139 -141
29 -46 31 -47 81 -47 38 0 58 -6 75 -20 13 -11 26 -20 29 -20 3 0 13 -12 22
-28 15 -27 23 -32 111 -71 60 -26 76 -39 169 -132 l76 -76 0 81 c1 55 7 99 21
138 21 58 20 86 -6 134 -5 10 -18 36 -28 57 -11 22 -31 48 -46 58 -15 11 -37
36 -49 57 -12 20 -33 47 -47 59 -13 12 -32 37 -41 55 -10 22 -28 37 -51 45
-19 7 -29 12 -21 12 11 1 11 4 1 15 -6 8 -18 12 -26 9 -8 -3 -14 0 -14 7 0 6
5 8 11 4 7 -4 10 -1 7 7 -3 10 -18 13 -46 11 -26 -2 -42 1 -42 7 0 6 7 11 15
11 9 0 15 9 15 24 0 21 -30 60 -30 40 0 -5 -7 5 -16 23 -9 17 -30 38 -47 47
l-32 16 65 1 c36 1 110 3 165 5 202 7 466 4 532 -6 37 -5 135 -11 217 -14 84
-3 154 -10 159 -15 6 -6 20 -11 32 -11 11 0 29 -7 39 -15 22 -17 40 -20 31 -6
-3 5 0 13 7 17 7 4 10 4 6 -1 -4 -4 -3 -16 3 -26 8 -16 14 -17 30 -8 16 8 18
13 8 25 -14 18 -12 20 26 28 26 6 37 0 80 -38 47 -43 56 -74 14 -47 -12 7 -23
10 -25 8 -3 -3 17 -18 45 -35 58 -36 68 -59 45 -107 -17 -36 -34 -46 -34 -20
0 8 -4 15 -10 15 -5 0 -9 -3 -9 -7 3 -19 -2 -25 -14 -15 -8 7 -18 7 -27 2 -8
-5 -12 -11 -10 -13 14 -11 119 -57 131 -57 11 -1 11 -3 -2 -13 -9 -7 -19 -25
-23 -42 -4 -16 -14 -37 -22 -47 -25 -27 -14 -80 19 -96 25 -12 31 -12 47 3 36
32 43 10 35 -110 l-7 -113 91 6 c52 3 102 0 118 -6 15 -6 69 -26 118 -46 50
-19 109 -40 133 -46 23 -6 64 -22 89 -35 25 -14 54 -25 64 -25 9 0 19 -4 21
-8 2 -4 21 -18 43 -31 121 -71 207 -136 240 -181 19 -26 42 -51 51 -54 25 -10
106 -7 99 3 -3 5 -2 12 3 15 13 8 16 316 3 316 -6 0 -11 7 -11 16 0 8 5 12 10
9 17 -11 13 207 -5 243 -18 36 -105 112 -129 112 -9 0 -21 9 -28 20 -7 11 -21
20 -30 20 -21 0 -22 -4 -7 -31 7 -15 7 -29 0 -51 -12 -33 -7 -48 10 -31 5 5
21 8 35 5 17 -3 21 -7 14 -12 -9 -6 -9 -12 0 -30 6 -12 10 -22 8 -23 -2 -1
-13 -8 -25 -14 -30 -17 -44 -16 -37 2 8 19 -21 65 -40 65 -9 0 -12 7 -9 20 4
14 -2 23 -23 32 -39 16 -39 15 -24 34 12 13 11 17 -1 25 -8 5 -10 9 -4 9 5 0
4 5 -3 12 -7 7 -12 19 -12 28 0 23 -56 53 -86 46 -17 -5 -23 -3 -19 4 10 16
-12 12 -30 -7 -14 -13 -20 -14 -34 -5 -9 7 -23 15 -31 19 -8 4 -21 13 -28 20
-11 11 -11 13 0 13 8 0 6 5 -5 11 -10 6 -22 21 -27 34 -11 30 -65 64 -148 94
-76 29 -172 26 -242 -7 -25 -11 -49 -17 -53 -13 -4 4 -5 44 -1 88 l7 81 194 1
c107 1 225 6 262 10 36 5 178 6 314 4 l247 -5 0 61 0 61 -38 0 c-25 0 -45 7
-56 19 -16 18 -16 19 9 23 17 4 25 1 25 -9 0 -10 6 -13 16 -9 9 3 22 6 30 6
19 0 19 66 0 73 -8 3 -37 2 -65 -2 -27 -4 -65 -7 -83 -5 -18 1 -60 3 -93 4
-33 2 -66 7 -72 13 -9 6 -15 4 -19 -7 -3 -9 -10 -16 -15 -16 -4 0 -6 7 -3 15
7 18 -17 20 -34 3 -9 -9 -12 -9 -12 0 0 7 -11 12 -25 12 -14 0 -25 -4 -25 -10z
m307 -892 c6 -7 13 -30 17 -50 6 -30 11 -38 29 -38 29 -1 74 -35 58 -44 -15
-10 -14 -43 2 -50 6 -3 0 -4 -14 -1 -31 6 -69 -19 -69 -46 0 -11 -11 -31 -24
-44 -13 -13 -30 -37 -37 -54 -9 -19 -19 -29 -27 -26 -8 3 -18 5 -23 5 -5 0 -9
14 -9 30 0 17 -7 47 -15 67 -18 44 -19 39 5 61 11 10 25 45 33 83 13 61 40
119 57 119 4 0 12 -6 17 -12z"/>
<path d="M7388 7095 c-7 -7 10 -100 28 -150 7 -22 14 -48 14 -59 0 -10 5 -36
12 -58 14 -47 40 -65 62 -43 11 11 16 12 19 2 10 -28 31 15 33 71 4 94 14 206
20 225 5 15 -4 17 -89 17 -51 0 -96 -2 -99 -5z"/>
<path d="M7740 5941 c14 -5 39 -9 56 -10 35 -1 83 -19 164 -61 30 -15 104 -53
163 -84 100 -52 153 -87 214 -143 14 -12 31 -19 39 -16 17 6 6 27 -53 101 -34
42 -159 133 -208 152 -14 5 -25 13 -25 18 0 9 -111 26 -240 37 -36 3 -81 8
-100 10 -30 4 -31 3 -10 -4z"/>
<path d="M8540 5790 c-7 -23 -24 -52 -37 -66 -13 -14 -23 -29 -23 -34 0 -4
-24 -33 -52 -63 -29 -31 -68 -72 -86 -91 -18 -20 -51 -47 -72 -61 -22 -14 -40
-29 -40 -34 0 -13 -123 -42 -200 -47 -61 -5 -202 6 -280 22 -30 6 -33 5 -23
-8 32 -38 133 -70 273 -87 30 -4 64 -12 74 -18 12 -6 29 -8 40 -3 12 4 47 8
79 8 39 0 65 6 76 16 10 9 29 16 42 16 29 0 159 117 159 143 0 10 7 17 15 17
10 0 14 10 13 33 -1 19 3 40 8 48 5 8 10 34 12 59 1 25 13 65 25 90 23 47 33
100 18 100 -4 0 -14 -18 -21 -40z"/>
<path d="M9656 5721 c-4 -7 0 -11 12 -11 25 0 120 -52 161 -89 39 -35 53 -38
71 -16 14 17 85 21 95 6 7 -13 64 -41 82 -41 7 0 13 -3 13 -7 0 -13 52 -33 86
-33 17 0 37 -7 44 -15 7 -8 23 -15 37 -15 13 0 33 -5 44 -11 40 -21 40 -3 1
25 -23 15 -45 25 -51 22 -5 -3 -23 5 -39 19 -16 14 -39 25 -51 25 -11 0 -38 7
-58 15 -21 8 -45 14 -53 13 -30 -2 -50 2 -50 12 0 5 8 7 18 3 16 -5 16 -5 0
12 -12 13 -30 18 -62 17 -40 -2 -49 2 -80 34 -34 35 -38 37 -124 42 -61 3 -91
1 -96 -7z"/>
<path d="M10354 4623 c-15 -3 -20 -10 -17 -26 4 -30 -39 -82 -62 -73 -12 4
-16 14 -13 31 6 30 -3 32 -19 7 -8 -14 -25 -19 -69 -21 -32 -1 -60 2 -63 7 -8
12 -61 24 -62 15 0 -5 -2 -20 -4 -35 -2 -16 3 -32 13 -41 24 -22 120 -48 128
-36 4 6 13 4 23 -5 15 -14 20 -14 36 -2 16 12 22 12 42 -1 39 -26 213 1 213
33 0 17 1 17 34 5 26 -10 86 5 86 22 0 5 -7 7 -15 3 -20 -7 -62 8 -47 18 18
11 15 26 -3 19 -9 -3 -25 3 -35 12 -14 13 -20 14 -20 5 0 -9 -6 -8 -20 5 -11
10 -20 14 -20 9 0 -5 -9 2 -20 16 -16 21 -21 22 -29 10 -5 -8 -7 -18 -5 -22 3
-4 -6 -8 -20 -8 -14 0 -26 5 -26 11 0 6 6 9 13 6 10 -4 13 2 9 19 -2 13 -5 23
-6 23 0 -1 -10 -4 -22 -6z"/>
<path d="M9633 2903 c-7 -2 -13 -14 -13 -25 0 -17 3 -18 15 -8 13 11 15 8 15
-15 0 -23 -2 -26 -15 -15 -9 7 -15 8 -15 2 0 -20 29 -21 53 -1 14 10 32 16 41
13 21 -8 20 -21 -1 -27 -14 -4 -14 -5 3 -6 25 -1 49 -25 40 -40 -13 -20 6 -43
30 -37 12 3 26 2 29 -4 3 -5 0 -10 -7 -10 -9 -1 -9 -3 2 -9 19 -11 82 -2 74
10 -3 5 0 9 5 9 6 0 11 -5 11 -11 0 -7 10 -9 25 -7 14 3 28 1 31 -3 9 -16 37
-10 30 6 -3 8 0 15 6 15 9 0 9 3 0 12 -17 17 -15 28 7 28 27 0 51 10 51 22 0
5 -6 8 -12 7 -7 -1 -26 -1 -43 0 -23 1 -27 3 -15 11 13 8 13 10 -2 10 -10 0
-24 13 -33 30 -10 19 -20 27 -30 24 -20 -8 -19 -24 1 -24 13 0 14 -3 4 -15 -7
-8 -17 -12 -23 -8 -7 4 -38 6 -70 5 -34 -2 -56 1 -53 7 3 5 22 9 42 9 19 0 38
3 42 6 15 16 -21 25 -105 27 -51 1 -93 6 -93 10 0 10 -8 10 -27 2z"/>
<path d="M9354 2692 c3 -3 2 -10 -3 -16 -13 -17 6 -56 27 -56 15 0 18 -5 14
-25 -3 -20 -10 -25 -33 -25 -16 0 -29 -4 -29 -10 0 -10 24 -15 45 -10 34 8 71
6 78 -4 6 -8 10 -8 14 2 2 6 18 12 35 12 22 0 29 4 25 14 -4 10 -1 13 7 10 8
-3 17 -1 21 5 4 8 11 6 22 -4 9 -9 23 -13 34 -10 11 4 30 8 44 9 14 2 32 11
40 22 8 11 15 14 15 7 0 -16 59 -17 80 -2 12 9 11 10 -7 6 -12 -3 -39 1 -60 8
-35 12 -39 12 -45 -6 -8 -20 -23 -25 -32 -10 -3 5 1 11 9 15 16 6 21 36 6 36
-5 0 -12 -7 -15 -16 -3 -9 -12 -14 -20 -11 -7 3 -19 0 -25 -6 -6 -6 -11 -7
-11 -3 0 5 -7 3 -15 -4 -12 -10 -15 -10 -15 2 0 27 -20 36 -58 27 -22 -5 -41
-4 -46 1 -7 7 -1 10 14 10 38 0 19 8 -54 24 -37 7 -65 11 -62 8z"/>
<path d="M10552 2631 c-2 -22 2 -42 8 -46 17 -10 0 -26 -21 -20 -21 7 -28 -20
-6 -28 6 -3 -5 -4 -26 -3 -30 1 -39 6 -43 23 -3 12 -3 27 1 32 3 6 1 11 -4 11
-15 0 -14 33 1 48 9 9 8 12 -5 12 -10 0 -20 -7 -23 -15 -3 -8 -16 -17 -27 -21
-21 -7 -20 -8 8 -20 26 -11 27 -13 8 -14 -28 0 -31 -20 -4 -20 11 0 23 -5 27
-11 10 -17 -48 -2 -61 16 -12 15 -68 9 -59 -7 3 -5 15 -6 27 -2 21 6 21 6 -2
-19 -25 -27 -41 -27 -41 -1 0 11 -6 13 -21 9 -38 -13 -179 -15 -179 -3 0 7 -5
6 -15 -2 -11 -9 -15 -9 -15 -1 0 7 -5 9 -10 6 -6 -3 -13 1 -16 10 -5 11 -10
13 -19 5 -15 -12 -25 -3 -25 24 0 17 -2 18 -10 6 -11 -16 -14 -1 -4 23 3 9 13
13 25 10 10 -3 19 -1 19 5 0 14 -54 22 -62 9 -4 -7 -8 -23 -8 -37 0 -39 -28
-73 -56 -67 -27 5 -34 -17 -9 -27 9 -3 12 -12 9 -21 -4 -9 -13 -14 -20 -11
-15 6 -19 -6 -7 -18 4 -3 8 -15 10 -26 1 -10 12 -35 23 -56 12 -20 19 -38 16
-41 -2 -3 3 -12 12 -22 13 -14 23 -15 45 -8 15 5 31 7 34 3 4 -3 -1 -6 -10 -6
-10 0 -17 -4 -17 -10 0 -15 33 -12 58 6 12 8 22 11 22 5 0 -5 -5 -13 -10 -16
-18 -11 20 -38 67 -46 26 -5 54 -15 62 -23 20 -18 77 -33 67 -18 -3 6 7 4 24
-4 17 -9 28 -20 25 -25 -4 -5 -1 -9 5 -9 16 0 69 -63 70 -82 0 -20 22 -36 28
-20 6 18 22 14 22 -4 0 -10 6 -14 15 -10 8 3 15 1 15 -4 0 -6 8 -10 18 -10 10
0 22 -3 25 -7 9 -8 -22 -43 -37 -43 -6 0 -2 7 8 15 17 13 18 15 3 15 -9 0 -17
5 -17 10 0 6 -4 10 -10 10 -5 0 -10 -13 -10 -29 0 -21 6 -32 20 -36 11 -3 20
-12 20 -20 0 -7 7 -15 15 -19 8 -3 15 -11 15 -18 0 -7 13 -24 30 -38 22 -18
26 -27 18 -37 -6 -7 -19 -13 -29 -13 -10 0 -20 -8 -23 -18 -5 -14 -16 -18 -49
-17 -24 1 -50 -5 -61 -15 -11 -8 -17 -10 -13 -4 4 7 -13 11 -53 10 -36 0 -60
-5 -60 -12 0 -16 -40 -34 -82 -37 -21 -1 -40 -8 -43 -16 -4 -11 -8 -11 -20 -1
-12 10 -15 10 -15 0 0 -9 -3 -10 -13 -2 -10 9 -19 8 -33 -3 -14 -9 -42 -13
-95 -10 -43 2 -76 -1 -80 -7 -7 -11 -48 6 -61 26 -5 8 -8 7 -8 -1 0 -7 -7 -13
-16 -13 -8 0 -12 -4 -9 -10 3 -5 14 -10 24 -10 9 0 37 -10 61 -21 32 -16 45
-18 48 -9 3 7 9 3 16 -10 9 -19 126 -78 126 -64 0 3 7 -1 15 -9 7 -8 31 -18
51 -22 20 -3 43 -13 51 -20 8 -8 32 -19 53 -25 22 -6 42 -15 45 -20 3 -6 15
-10 25 -10 10 0 31 -7 47 -15 15 -8 57 -26 93 -41 36 -14 101 -43 145 -64 44
-21 94 -41 110 -44 17 -4 38 -9 48 -12 16 -5 17 21 17 495 0 310 -4 503 -10
506 -6 3 -10 12 -10 18 0 7 4 6 10 -3 7 -11 10 5 10 51 0 51 -4 68 -15 73 -8
3 -20 17 -25 31 -9 25 -30 35 -30 14 0 -5 -5 -7 -10 -4 -8 5 -8 11 -1 19 13
16 4 27 -15 19 -9 -3 -14 1 -14 12 0 12 -5 15 -16 11 -9 -3 -18 -6 -20 -6 -3
0 0 -9 6 -21 7 -12 18 -18 26 -15 15 6 20 -9 5 -19 -6 -3 -24 13 -42 35 -17
21 -35 37 -39 35 -4 -2 -5 7 -2 20 4 24 22 36 22 15 0 -12 26 -14 33 -2 2 4 2
1 1 -5 -2 -7 3 -13 11 -13 18 0 19 23 4 51 -8 16 -13 18 -24 9 -19 -16 -76 -3
-69 15 3 8 13 16 22 18 10 3 7 5 -9 6 -22 1 -25 -3 -27 -38z"/>
<path d="M8633 2530 c4 -17 2 -20 -14 -15 -10 4 -19 2 -19 -4 0 -6 -7 -8 -15
-5 -8 4 -15 1 -15 -6 0 -8 10 -9 30 -5 26 6 30 3 36 -22 4 -15 12 -31 18 -35
8 -6 7 -11 -2 -17 -11 -6 -7 -13 15 -30 40 -30 46 -35 67 -65 15 -21 27 -26
50 -24 23 2 30 -1 28 -12 -17 -70 -15 -77 18 -83 23 -5 39 -1 63 16 18 12 34
23 37 25 2 2 -2 7 -10 12 -8 5 -11 13 -6 17 5 4 11 2 13 -4 7 -19 23 -16 23 5
0 14 2 15 10 2 7 -11 9 -2 9 30 -1 37 -3 40 -8 17 -6 -26 -7 -27 -26 -13 l-20
15 20 1 c15 1 16 3 5 7 -8 4 -21 12 -29 20 -7 8 -20 12 -28 9 -25 -10 -36 6
-13 18 13 6 23 16 23 21 0 6 7 15 15 21 8 6 12 16 8 23 -11 17 -36 -5 -36 -32
0 -28 -6 -19 -14 22 -5 27 -3 32 9 27 12 -4 15 3 15 29 0 26 -3 33 -15 29 -18
-7 -19 -21 -2 -27 6 -3 0 -6 -15 -6 -16 -1 -28 3 -28 8 0 5 -11 9 -25 9 -13 0
-22 -4 -19 -9 3 -5 14 -9 25 -9 26 0 24 -16 -3 -23 -13 -4 -33 0 -45 8 -20 13
-22 13 -17 0 4 -10 0 -15 -15 -15 -12 0 -21 6 -21 15 0 8 -6 15 -12 16 -7 0
-4 4 7 9 18 8 17 9 -8 9 -16 1 -26 -3 -23 -7 2 -4 1 -14 -3 -21 -5 -8 -11 2
-15 28 -3 23 -11 41 -17 41 -6 0 -9 -9 -6 -20z"/>
<path d="M8554 2428 c4 -15 1 -16 -20 -8 -14 6 -37 9 -52 9 l-27 -1 25 -7 c14
-3 25 -13 25 -21 0 -8 6 -14 13 -12 15 3 16 -15 0 -20 -16 -6 -19 -38 -3 -38
8 0 21 7 29 16 15 14 16 14 16 0 0 -9 -5 -16 -12 -16 -6 0 -3 -7 8 -15 18 -13
17 -14 -18 -15 -34 0 -38 -3 -38 -25 0 -18 5 -25 18 -25 10 0 22 -3 26 -7 8
-8 69 -6 100 4 15 4 16 7 5 15 -11 7 -9 8 6 5 11 -2 19 -9 18 -15 -2 -7 6 -12
18 -12 11 0 17 -4 14 -10 -3 -5 -1 -10 4 -10 15 0 14 27 -1 33 -10 4 -10 6 0
6 6 1 12 8 12 17 0 12 -7 14 -30 9 -19 -4 -30 -3 -30 4 0 6 9 11 20 11 11 0
20 4 20 8 0 12 -49 33 -61 27 -5 -3 -6 1 -3 9 4 12 0 16 -17 17 -13 0 -18 3
-11 6 23 9 12 23 -13 17 -20 -5 -25 -2 -25 12 0 11 -5 26 -11 34 -9 13 -10 12
-5 -2z"/>
<path d="M8140 1754 c0 -10 -9 -12 -32 -8 l-33 5 28 -24 c29 -24 36 -72 10
-72 -6 0 -14 -3 -17 -6 -4 -3 -17 -4 -31 -2 -18 4 -25 13 -30 43 -4 21 -13 46
-21 57 -14 17 -14 15 -9 -14 4 -20 3 -33 -4 -33 -6 0 -8 7 -5 15 10 25 -31 18
-51 -9 -10 -13 -24 -22 -32 -19 -7 3 -13 0 -13 -6 0 -7 8 -15 18 -18 9 -4 26
-16 38 -28 l20 -22 -34 -13 c-38 -14 -54 -6 -27 13 10 8 15 20 12 28 -4 10 -6
9 -6 -3 -1 -12 -9 -18 -23 -18 -19 0 -20 2 -8 10 13 8 12 12 -7 25 -26 18 -30
35 -8 35 8 0 15 4 15 9 0 5 10 11 22 13 12 2 23 9 26 16 2 8 -11 12 -47 14
-28 0 -56 1 -63 2 -22 2 -19 -24 4 -33 12 -6 17 -10 10 -10 -7 -1 -10 -6 -7
-11 4 -6 -4 -19 -17 -29 -22 -18 -22 -20 -5 -38 9 -11 17 -21 17 -24 0 -4 -29
-8 -77 -10 -19 -1 -22 -5 -17 -25 5 -19 1 -26 -22 -34 -20 -8 -30 -8 -32 -1
-2 6 -16 11 -30 10 l-27 -1 28 -10 c15 -5 27 -14 27 -19 0 -5 6 -9 14 -9 18 0
30 -17 17 -24 -5 -4 -15 0 -23 7 -19 19 -46 28 -53 17 -4 -6 4 -15 17 -20 13
-6 37 -19 53 -30 17 -11 37 -22 45 -26 17 -6 37 -17 89 -47 72 -41 113 -58
127 -53 8 3 14 -1 14 -8 0 -18 88 -64 98 -51 4 6 18 11 32 12 24 2 23 1 -5
-12 l-29 -13 34 -21 c19 -12 41 -19 48 -16 7 3 10 0 7 -5 -4 -6 14 -19 40 -30
37 -16 50 -17 70 -8 14 6 25 18 25 26 0 11 7 13 33 7 17 -5 48 -8 68 -9 20 -1
43 -7 52 -14 10 -9 17 -10 22 -2 9 15 -3 30 -21 23 -8 -3 -14 -2 -13 3 4 25
-3 44 -16 44 -8 0 -14 3 -13 8 3 17 -23 62 -37 62 -8 0 -15 5 -15 10 0 6 4 10
8 10 5 0 7 13 4 28 -3 22 -12 32 -40 43 -19 8 -43 13 -51 12 -10 -2 -11 0 -3
3 17 8 15 28 -7 56 -17 21 -27 24 -76 23 -51 0 -56 1 -53 20 2 11 10 20 20 20
9 0 26 9 37 19 12 11 21 15 21 10 1 -5 7 2 14 16 13 22 12 26 -5 38 -25 18
-24 34 2 30 32 -4 46 24 29 57 -9 18 -16 22 -21 13 -10 -15 -65 2 -62 19 1 6
-7 13 -17 16 -13 3 -20 0 -20 -9z"/>
<path d="M8930 1595 c0 -17 4 -23 14 -19 22 8 28 -58 8 -74 -13 -9 -14 -15 -5
-20 8 -5 12 -30 12 -65 -1 -31 -5 -54 -10 -52 -5 3 -11 -4 -13 -17 -8 -37 -4
-58 11 -58 8 0 13 -12 13 -31 0 -16 -4 -28 -9 -25 -5 3 -12 -1 -15 -10 -9 -23
-8 -27 9 -20 9 3 15 0 15 -8 0 -9 -7 -12 -20 -9 -11 3 -20 14 -20 24 0 14 -7
19 -29 19 -16 0 -31 -6 -35 -15 -9 -25 -65 -19 -92 10 -17 19 -30 24 -47 20
-18 -5 -28 0 -41 20 -17 25 -18 26 -31 8 -18 -22 -19 -10 -3 17 10 15 9 23 -7
40 -13 14 -22 17 -29 10 -17 -17 -27 -11 -14 9 9 15 9 23 -1 35 -18 21 -24 20
-39 -5 -11 -17 -11 -24 1 -37 8 -10 17 -25 20 -34 7 -19 37 -25 37 -8 0 6 5
10 10 10 6 0 3 -11 -5 -24 -12 -17 -13 -26 -5 -31 6 -4 15 -17 20 -29 l9 -21
0 22 c1 12 5 25 11 28 5 3 7 0 4 -8 -6 -16 22 -31 39 -21 9 5 9 4 1 -5 -13
-14 -90 -28 -81 -15 9 15 -9 38 -22 29 -7 -3 -9 -15 -6 -25 6 -18 -15 -28 -73
-36 -13 -1 -30 -8 -38 -15 -11 -9 -18 -9 -26 -1 -31 31 -38 -2 -9 -39 12 -16
17 -34 14 -51 -4 -23 1 -30 33 -48 22 -11 53 -29 69 -40 17 -11 37 -23 45 -27
8 -3 19 -12 23 -20 4 -7 14 -13 22 -13 8 0 33 -13 57 -29 24 -16 66 -40 93
-54 28 -13 65 -32 84 -42 27 -14 38 -16 52 -6 23 14 29 14 29 1 0 -5 -7 -10
-15 -10 -8 0 -15 -4 -15 -10 0 -5 10 -10 23 -10 20 0 22 5 24 58 1 31 5 140 8
241 6 148 4 186 -7 193 -10 7 -10 11 0 15 14 5 18 143 3 143 -10 0 -4 81 9
123 11 33 4 57 -16 57 -8 0 -17 7 -20 15 -9 24 -24 18 -24 -10z"/>
<path d="M9533 1500 c3 -13 0 -20 -9 -20 -9 0 -12 -8 -9 -27 7 -37 13 -76 14
-86 1 -5 10 -5 21 -2 11 4 20 2 20 -4 0 -17 -38 -13 -48 5 -7 12 -14 14 -28 6
-10 -5 -25 -7 -31 -5 -7 3 -13 0 -13 -6 0 -6 5 -11 10 -11 17 0 11 -16 -7 -17
-10 -1 -33 -5 -51 -9 -22 -4 -40 -1 -58 11 -18 11 -34 14 -57 9 -18 -4 -41 -8
-51 -9 -11 -1 -23 -10 -27 -21 -7 -18 -8 -18 -9 1 -1 18 -2 17 -15 -5 -8 -14
-14 -19 -15 -12 0 6 -7 12 -15 12 -19 0 -19 -18 1 -55 9 -16 16 -40 16 -52 -1
-13 3 -23 9 -23 6 0 8 -9 4 -19 -3 -11 -1 -22 4 -26 6 -3 8 0 5 8 -6 16 43 31
52 16 3 -5 -1 -9 -8 -9 -8 0 -6 -5 5 -11 26 -15 20 -36 -14 -48 -41 -14 -39
-15 -39 10 0 11 -4 18 -9 15 -5 -3 -7 -15 -4 -26 4 -14 0 -20 -11 -20 -14 0
-15 10 -10 74 5 50 3 75 -5 80 -8 5 -11 -22 -11 -98 0 -57 -3 -111 -6 -119 -3
-10 2 -18 17 -22 16 -5 18 -9 8 -15 -7 -5 -16 -7 -20 -5 -12 8 -19 -56 -9 -75
6 -10 6 -21 2 -24 -5 -3 -8 -43 -7 -90 0 -47 -3 -82 -7 -80 -12 8 -9 -10 5
-28 6 -8 53 -37 102 -63 255 -135 277 -143 313 -108 21 22 84 29 76 9 -3 -8
-1 -17 5 -21 8 -4 6 -15 -4 -35 -19 -37 -20 -36 13 -53 15 -8 70 -37 122 -64
277 -147 338 -178 485 -252 155 -79 162 -81 229 -81 l70 0 -34 35 c-19 19 -40
35 -47 35 -7 0 -18 11 -24 23 -6 13 -29 32 -51 42 -25 11 -36 20 -29 25 7 4
10 18 8 31 -8 46 -18 59 -48 59 -16 0 -29 5 -29 10 0 6 -7 10 -15 10 -20 0
-95 40 -95 51 0 5 -8 9 -17 10 -11 0 -13 3 -5 6 26 10 11 39 -20 35 -3 -1 -12
5 -18 13 -7 8 -21 15 -31 15 -10 0 -23 9 -29 19 -5 11 -19 23 -30 26 -11 4
-18 11 -15 16 9 14 -28 58 -48 59 -13 0 -17 5 -13 18 4 10 -1 27 -9 38 -8 10
-15 25 -15 32 0 7 -7 21 -16 30 -12 12 -13 17 -4 20 7 3 16 -2 21 -9 6 -11 9
-9 9 8 0 15 -5 20 -17 17 -21 -5 -103 61 -103 82 0 16 -16 19 -25 4 -8 -13
-55 -13 -55 0 0 6 -5 10 -11 10 -17 0 -34 23 -37 52 -2 24 2 28 37 38 46 12
107 62 97 79 -4 6 -1 11 8 11 8 0 17 -6 19 -12 4 -10 6 -10 6 0 1 6 9 12 19
12 27 0 44 21 31 37 -9 10 -7 13 7 13 23 0 50 50 33 61 -6 4 -9 11 -5 17 3 6
1 14 -5 17 -7 5 -10 -2 -7 -21 2 -24 -1 -29 -18 -29 -11 0 -28 -6 -36 -13 -17
-13 -52 -6 -42 9 3 5 10 7 15 4 5 -4 9 -1 9 5 0 6 -7 13 -15 16 -8 4 -15 9
-15 13 1 15 27 39 50 46 21 7 23 6 13 -7 -7 -8 -10 -18 -6 -21 12 -12 21 -7
26 14 3 12 10 18 16 15 5 -4 12 -2 15 3 4 5 21 5 43 1 20 -5 40 -7 44 -5 3 3
14 -4 24 -15 17 -19 17 -20 -1 -27 -21 -7 -54 -41 -54 -55 0 -12 56 -10 104 4
46 13 69 28 43 28 -9 0 -17 3 -17 8 0 4 26 6 58 6 52 -2 135 17 211 47 l24 10
-21 15 c-12 8 -27 12 -32 9 -6 -3 -10 -2 -10 4 0 5 8 14 18 20 16 9 16 11 -3
26 -19 16 -19 16 8 10 21 -4 27 -3 21 6 -4 7 -3 9 4 5 10 -6 62 33 62 47 0 3
-13 8 -29 12 -16 3 -35 13 -42 21 -6 8 -19 14 -29 14 -9 0 -20 3 -24 7 -11 11
-79 12 -93 1 -9 -7 -18 0 -33 24 -11 18 -21 36 -22 41 -2 4 -13 9 -25 11 -11
3 -35 12 -53 21 -17 9 -38 14 -45 11 -8 -3 -19 2 -25 10 -7 8 -19 14 -26 14
-8 0 -14 4 -14 8 0 5 -16 14 -36 20 -30 9 -39 8 -51 -4 -8 -7 -23 -14 -34 -14
-12 0 -23 -10 -29 -26 -9 -23 -15 -26 -55 -22 -36 2 -45 0 -49 -16 -3 -10 2
-25 10 -34 13 -13 14 -11 9 11 -7 24 -5 26 33 25 22 0 45 3 51 6 6 4 11 2 11
-4 0 -6 -10 -15 -22 -20 -13 -5 -18 -9 -11 -9 7 -1 10 -8 6 -18 -5 -14 -1 -13
16 5 24 24 36 27 46 12 3 -6 -1 -13 -9 -16 -9 -3 -16 -10 -16 -15 0 -5 11 -3
25 3 18 8 25 19 25 40 0 23 -4 28 -25 28 -14 0 -25 6 -25 13 0 21 12 28 27 16
8 -7 13 -8 13 -1 0 5 9 8 19 5 16 -4 18 -9 10 -30 -13 -35 -11 -43 9 -43 15
-1 15 -2 1 -10 -17 -10 -15 -60 3 -60 5 0 6 -4 3 -10 -4 -6 -15 -2 -27 10 -20
18 -22 18 -34 2 -8 -10 -13 -12 -14 -4 0 6 -7 12 -15 12 -8 0 -15 4 -15 10 0
5 -7 7 -16 3 -8 -3 -13 -12 -10 -19 7 -18 -5 -18 -30 1 -10 8 -29 15 -41 15
-12 0 -25 5 -28 10 -3 6 -14 10 -24 10 -12 0 -18 7 -17 18 1 18 -23 21 -74 8
l-25 -7 25 11 c34 15 42 31 22 47 -15 11 -15 14 -2 24 12 8 9 9 -12 5 -29 -7
-49 10 -21 17 10 3 3 5 -14 6 -26 1 -33 5 -33 21 0 11 -5 20 -11 20 -6 0 -9
-9 -6 -20z"/>
<path d="M7517 1384 c-4 -4 -7 -31 -7 -60 l0 -52 38 -6 c63 -12 70 -16 81 -49
6 -18 23 -45 38 -62 16 -16 29 -36 30 -45 9 -69 17 -100 24 -100 17 0 9 -18
-11 -23 -14 -4 -18 -10 -13 -22 5 -16 2 -17 -33 -11 -21 4 -51 14 -66 22 -25
13 -38 7 -21 -9 4 -4 14 -29 23 -55 13 -38 23 -51 55 -66 22 -11 54 -32 70
-48 17 -15 33 -28 37 -28 4 0 3 -12 -2 -26 -13 -33 -13 -104 0 -104 6 0 10 -5
10 -11 0 -5 -4 -7 -10 -4 -5 3 -10 3 -10 -2 0 -14 31 -97 40 -108 4 -5 16 -41
27 -79 18 -70 38 -90 86 -88 9 0 17 -3 17 -9 0 -5 9 -9 21 -9 11 0 17 4 14 10
-3 6 6 11 22 11 15 1 35 3 43 4 8 1 21 3 28 4 6 0 12 8 12 16 0 8 6 15 13 15
18 0 41 40 29 52 -6 6 -12 6 -16 -1 -10 -16 -26 -13 -26 4 0 9 6 15 13 14 27
-3 35 2 47 31 9 23 19 30 39 29 28 0 112 -16 97 -18 -13 -2 33 -33 79 -55 22
-10 49 -23 60 -29 11 -6 31 -16 44 -23 13 -7 37 -29 54 -49 26 -33 29 -41 23
-83 -3 -26 -7 -54 -10 -62 -2 -8 -7 -30 -11 -48 -4 -19 -16 -39 -26 -45 -14
-9 -19 -24 -19 -59 l0 -48 234 0 233 0 23 52 c19 47 22 76 27 261 5 186 4 207
-11 207 -9 0 -16 5 -16 10 0 6 7 10 15 10 9 0 15 9 15 25 0 15 -6 25 -14 25
-8 0 -16 7 -20 15 -3 8 -12 15 -20 15 -8 0 -16 3 -18 8 -3 7 -33 25 -138 80
-36 18 -73 41 -82 49 -11 10 -26 13 -44 9 -22 -6 -25 -4 -20 9 7 20 -36 39
-84 36 -28 -2 -33 0 -22 10 19 20 15 24 -20 24 l-33 0 -3 -59 -3 -59 53 -47
c53 -48 58 -58 49 -131 -1 -3 -9 -16 -20 -27 -12 -15 -34 -23 -67 -27 -27 -2
-41 -2 -31 1 14 5 16 9 6 20 -6 8 -19 14 -28 14 -22 0 -71 23 -71 33 0 4 -5 7
-11 7 -6 0 -20 11 -31 25 -19 25 -58 34 -58 14 0 -5 -5 -7 -11 -3 -8 5 -7 9 1
14 9 6 3 13 -19 25 -18 9 -35 15 -37 12 -3 -2 -22 12 -44 32 -43 39 -51 71
-25 107 8 12 11 24 8 28 -3 3 -1 6 6 6 22 0 79 66 70 82 -9 15 33 73 45 61 3
-3 6 -1 6 5 0 15 -23 15 -38 0 -9 -9 -11 -6 -7 11 5 26 -22 41 -36 20 -7 -10
-8 -7 -7 10 2 13 -3 26 -11 29 -10 3 -12 0 -8 -12 4 -10 1 -16 -8 -16 -8 0
-15 9 -15 20 0 11 6 20 13 20 6 0 -1 7 -17 15 -15 8 -37 15 -47 15 -11 0 -18
5 -17 12 2 7 -12 17 -30 23 -18 6 -42 19 -53 28 -16 14 -23 15 -39 5 -15 -10
-25 -10 -38 -2 -21 14 -17 30 6 26 14 -2 13 0 -3 12 -11 9 -26 20 -32 26 -10
8 -13 7 -13 -1 0 -7 -11 -2 -24 11 -15 14 -31 20 -41 16 -12 -4 -19 0 -22 14
-3 11 -14 20 -24 20 -10 0 -20 4 -24 10 -3 5 -13 6 -22 3 -10 -4 -14 -2 -10 4
12 20 -49 34 -79 18 -23 -12 -28 -11 -45 6 -11 11 -18 23 -16 27 7 11 -8 44
-16 36z"/>
<path d="M9110 448 c-1 -35 -3 -88 -5 -118 -9 -107 -14 -302 -8 -316 4 -11 33
-14 147 -14 l141 0 -35 22 c-19 11 -55 25 -79 30 -48 9 -94 49 -85 73 4 8 -1
17 -10 21 -23 9 -20 19 9 34 14 7 25 19 25 27 0 7 7 13 15 13 8 0 30 16 49 36
18 19 36 30 38 24 2 -8 17 -4 41 10 31 18 37 28 35 48 -3 27 -3 27 -166 118
-23 13 -49 24 -57 24 -8 0 -15 6 -16 13 0 6 -4 3 -9 -8 -7 -16 -9 -17 -9 -3
-1 9 -5 20 -11 23 -6 4 -10 -17 -10 -57z"/>
</g>
</svg>
